<?xml version="1.0" encoding="utf-8"?>
<!-- Generator: Adobe Illustrator 22.0.1, SVG Export Plug-In . SVG Version: 6.00 Build 0)  -->
<svg version="1.1" id="Слой_1" xmlns="http://www.w3.org/2000/svg" xmlns:xlink="http://www.w3.org/1999/xlink" x="0px" y="0px"
	 viewBox="0 0 8.7 18.3" style="enable-background:new 0 0 8.7 18.3;" xml:space="preserve">
<style type="text/css">
	.st0{fill:#575756;}
	.st1{fill:#7FCC97;}
</style>
<g id="XMLID_656_">
	<path class="st0" d="M4.4,8.6C2,8.6,0,6.7,0,4.3S2,0,4.4,0s4.3,1.9,4.3,4.3S6.7,8.6,4.4,8.6z M4.4,1C2.5,1,1,2.5,1,4.3
		s1.5,3.3,3.3,3.3s3.3-1.5,3.3-3.3S6.2,1,4.4,1z"/>
</g>
<g id="XMLID_646_">
	<path class="st1" d="M4.4,18.2C2,18.2,0,16.3,0,13.9S2,9.6,4.4,9.6s4.3,1.9,4.3,4.3S6.7,18.2,4.4,18.2z M4.4,10.6
		c-1.8,0-3.3,1.5-3.3,3.3s1.5,3.3,3.3,3.3s3.3-1.5,3.3-3.3S6.2,10.6,4.4,10.6z"/>
</g>
<g id="XMLID_593_">
	<circle class="st1" cx="4.4" cy="13.9" r="2.5"/>
</g>
</svg>
