<?xml version="1.0" encoding="utf-8"?>
<!-- Generator: Adobe Illustrator 21.1.0, SVG Export Plug-In . SVG Version: 6.00 Build 0)  -->
<svg version="1.1" id="Слой_1" xmlns="http://www.w3.org/2000/svg" xmlns:xlink="http://www.w3.org/1999/xlink" x="0px" y="0px"
	 viewBox="0 0 159 135.2" style="enable-background:new 0 0 159 135.2;" xml:space="preserve">
<style type="text/css">
	.st0{fill:#FFFFFF;}
	.st1{fill:#84C496;}
	.st2{fill:#161616;}
	.st3{fill:#898887;}
	.st4{fill:#1C1C1C;}
	.st5{fill:#878686;}
	.st6{fill:#59AF89;}
</style>
<path id="XMLID_133_" class="st0" d="M68,13.2l-0.4,0.3c-1,0.6-2.2,0.9-3.4,0.9c-3.8,0-6.8-3.1-6.8-6.8s3.1-6.8,6.8-6.8
	c3.8,0,6.8,3.1,6.8,6.8c0,1.6-0.5,3.1-1.5,4.3l-0.4,0.5l4.1,4.1l-1,1L68,13.2z M64.2,2.1c-3,0-5.4,2.4-5.4,5.4s2.4,5.4,5.4,5.4
	c3,0,5.4-2.4,5.4-5.4C69.6,4.6,67.2,2.1,64.2,2.1z"/>
<g id="XMLID_118_">
	<path id="XMLID_127_" class="st0" d="M108.3,0h-7.8c-2.6,0-4.8,2.2-4.8,4.8v7.8c0,2.6,2.2,4.8,4.8,4.8h7.8c2.6,0,4.8-2.2,4.8-4.8
		V4.8C113.1,2.2,111,0,108.3,0z M111.6,12.6c0,1.8-1.5,3.3-3.3,3.3h-7.8c-1.8,0-3.3-1.5-3.3-3.3V4.8c0-1.8,1.5-3.3,3.3-3.3h7.8
		c1.8,0,3.3,1.5,3.3,3.3V12.6L111.6,12.6z"/>
	<path id="XMLID_122_" class="st0" d="M104.5,4.2c-2.5,0-4.5,2-4.5,4.5s2,4.5,4.5,4.5c2.5,0,4.5-2,4.5-4.5
		C108.9,6.3,106.9,4.2,104.5,4.2z M104.5,11.6c-1.6,0-3-1.3-3-3s1.3-3,3-3c1.6,0,3,1.3,3,3C107.4,10.3,106.1,11.6,104.5,11.6z"/>
	<path id="XMLID_108_" class="st0" d="M109.1,2.9c-0.3,0-0.6,0.1-0.8,0.3C108.1,3.5,108,3.7,108,4s0.1,0.6,0.3,0.8s0.5,0.3,0.8,0.3
		c0.3,0,0.6-0.1,0.8-0.3c0.2-0.2,0.3-0.5,0.3-0.8s-0.1-0.6-0.3-0.8C109.7,3,109.4,2.9,109.1,2.9z"/>
</g>
<g id="XMLID_115_">
	<path id="XMLID_107_" class="st0" d="M94.3,12.5c-0.6-0.8-1.4-1.4-2.1-2.1c-0.6-0.6-0.7-1-0.2-1.7c0.5-0.8,1.2-1.6,1.7-2.3
		c0.5-0.8,1.1-1.5,1.3-2.4c0.2-0.5,0-0.8-0.5-0.9c-0.1,0-0.2,0-0.3,0h-3.4c-0.4,0-0.6,0.2-0.8,0.5c-0.2,0.5-0.4,1-0.6,1.5
		c-0.5,1.1-1.1,2.2-2,3.1c-0.2,0.2-0.4,0.4-0.7,0.3c-0.4-0.2-0.5-0.8-0.5-1V3.6C86.2,3,86,2.8,85.5,2.6h-3.6c-0.5,0-0.7,0.2-1,0.5
		c-0.2,0.2-0.2,0.3,0.1,0.3c0.6,0.1,0.9,0.5,1,1.1c0.2,0.9,0.1,1.9,0.1,2.8c0,0.3-0.1,0.5-0.2,0.8c-0.2,0.4-0.4,0.5-0.8,0.2
		c-0.3-0.2-0.5-0.5-0.8-0.9c-0.9-1.2-1.5-2.5-2.1-3.8C78.1,3.3,77.8,3,77.4,3c-1,0-2,0-3.1,0c-0.6,0-0.8,0.3-0.5,0.9
		c1.1,2.5,2.4,4.9,4,7.1c0.8,1.1,1.8,2.1,3,2.8c1.4,0.8,2.9,1,4.5,1c0.8-0.1,1-0.2,1-1c0-0.5,0.1-1,0.3-1.5c0.3-0.4,0.6-0.5,1-0.3
		c0.2,0.2,0.4,0.3,0.5,0.5c0.4,0.4,0.8,0.9,1.2,1.3c0.5,0.5,1.2,0.9,2,0.8h3.1c0.5-0.1,0.8-0.6,0.5-1.2
		C94.8,13.2,94.6,12.8,94.3,12.5z"/>
</g>
<g id="XMLID_186_">
	<g id="XMLID_2_">
		<path id="XMLID_197_" class="st1" d="M49.7,121.6l-0.2,0.1c-0.3,0.2-0.6,0.2-0.9,0.1l-0.4-0.2c0,0-0.1,0-0.1-0.1l-2.4-0.8
			c-0.2-0.1-0.4,0.1-0.4,0.2l-2,5.9c-0.1,0.1,0,0.2,0,0.3c0,0.1,0.1,0.2,0.2,0.2l2.4,0.8c0.1,0,0.1,0,0.1,0c0.2,0,0.3-0.1,0.3-0.2
			l1.9-5.5l0.1,0.1c0.5,0.2,1,0.2,1.5-0.1l0.2-0.1c0.3-0.2,0.6-0.2,0.9-0.1l4.4,1.5c-0.1,0.2-0.2,0.4-0.3,0.5
			c-0.2,0.1-0.5,0.1-0.9,0l-2-0.7c-0.1-0.1-0.2,0-0.3,0s-0.2,0.1-0.2,0.2c0,0-0.3,1-1.1,1.5c-0.5,0.3-1.2,0.3-2,0.1
			c-0.2-0.1-0.4,0.1-0.4,0.2c-0.1,0.2,0.1,0.4,0.2,0.4c0.5,0.2,0.9,0.2,1.3,0.2c0.5,0,0.9-0.1,1.3-0.3c0.8-0.4,1.2-1.1,1.3-1.6
			l1.7,0.5c0.6,0.2,1.1,0.2,1.5-0.1c0.6-0.4,0.6-1.3,0.6-1.3c0-0.2-0.1-0.3-0.2-0.3l-4.7-1.6C50.8,121.3,50.2,121.4,49.7,121.6z
			 M45.7,127.4l-1.8-0.6l1.8-5.2l1.8,0.6L45.7,127.4z"/>
		<path id="XMLID_189_" class="st1" d="M59,127.8l-0.8,0.8c-0.8,0.7-1.6,1.3-2.5,1.7l-4.4,2.2c-0.2,0.1-0.4,0-0.5-0.2
			c-0.1-0.2,0-0.4,0.2-0.5H51l0,0l2.4-1.2c0.2-0.1,0.3-0.3,0.2-0.5c-0.1-0.2-0.3-0.3-0.5-0.2l-2.4,1.2l0,0l-1.2,0.6
			c-0.2,0.1-0.4,0-0.5-0.2c-0.1-0.1-0.1-0.2,0-0.3c0.1-0.1,0.1-0.2,0.2-0.2l0.9-0.4l0,0l2.6-1.3c0.2-0.1,0.3-0.3,0.2-0.5
			c-0.1-0.2-0.3-0.3-0.5-0.2l-2.6,1.3l0,0l-0.1,0.1l-1.2,0.6c-0.1,0.1-0.2,0.1-0.3,0c-0.1-0.1-0.2-0.1-0.2-0.2
			c-0.1-0.2,0-0.4,0.2-0.5l0.4-0.2l0,0l0.9-0.4l0.3-0.1l0,0l2-1c0.2-0.1,0.3-0.3,0.2-0.5c-0.1-0.2-0.3-0.3-0.5-0.2l-2.2,1.1l-1,0.5
			c-0.2,0.1-0.4,0-0.5-0.2c-0.1-0.1-0.1-0.2,0-0.3c0.1-0.1,0.1-0.2,0.2-0.2l1.7-0.8c0.2-0.1,0.3-0.3,0.2-0.5
			c-0.1-0.2-0.3-0.3-0.5-0.2l-1.7,0.8c-0.3,0.1-0.4,0.3-0.5,0.6c-0.1,0.3-0.1,0.6,0.1,0.8c0.1,0.2,0.2,0.3,0.3,0.4
			c-0.2,0.3-0.3,0.8-0.1,1.1c0.1,0.3,0.3,0.4,0.6,0.5c0.1,0.1,0.2,0.1,0.3,0.1c0,0.2,0.1,0.3,0.1,0.5c0.2,0.4,0.6,0.6,1,0.6
			c0.2,0,0.3-0.1,0.5-0.1l0.3-0.1c0,0.1,0.1,0.3,0.1,0.4c0.2,0.4,0.6,0.6,1,0.6c0.2,0,0.3-0.1,0.5-0.1l4.4-2.2
			c1-0.5,1.9-1.1,2.7-1.8l1-0.9l2.3-1.1c0.2-0.1,0.3-0.3,0.2-0.5l-2.7-5.6c-0.1-0.1-0.1-0.2-0.2-0.2c-0.1-0.1-0.2,0-0.3,0l-2.3,1.1
			c-0.2,0.1-0.3,0.3-0.2,0.5L59,127.8z M58.8,121.6l2.4,5l-1.7,0.8l-2.4-5L58.8,121.6z"/>
	</g>
</g>
<g id="XMLID_174_">
	<g id="XMLID_3_">
		<path id="XMLID_180_" class="st1" d="M22.9,128.6c-0.3-0.3-0.6-0.5-1-0.5s-0.7,0.2-1,0.5l-1,1c-0.1-0.1-0.2-0.1-0.2-0.1
			c-0.1-0.1-0.2-0.1-0.3-0.2c-0.9-0.5-1.7-1.3-2.5-2.3c-0.4-0.5-0.6-0.9-0.8-1.3c0.3-0.2,0.5-0.5,0.7-0.7c0.1-0.1,0.2-0.2,0.3-0.3
			c0.6-0.6,0.6-1.5,0-2.1l-0.8-0.8c-0.1-0.1-0.2-0.2-0.3-0.3c-0.2-0.2-0.4-0.4-0.5-0.5c-0.3-0.3-0.6-0.4-1-0.4s-0.7,0.2-1,0.4l0,0
			l-1,1c-0.4,0.4-0.6,0.9-0.6,1.4c-0.1,0.9,0.2,1.7,0.4,2.2c0.5,1.3,1.2,2.5,2.3,3.8c1.3,1.6,2.9,2.8,4.7,3.7
			c0.7,0.3,1.6,0.7,2.6,0.8c0.1,0,0.1,0,0.2,0c0.7,0,1.3-0.3,1.7-0.8l0,0c0.2-0.2,0.3-0.4,0.5-0.5c0.1-0.1,0.3-0.3,0.4-0.4
			c0.3-0.3,0.4-0.6,0.4-1c0-0.4-0.2-0.8-0.5-1L22.9,128.6z M24,131.8L24,131.8c-0.1,0.1-0.2,0.2-0.4,0.4c-0.2,0.2-0.4,0.4-0.6,0.6
			c-0.3,0.3-0.6,0.5-1.1,0.5c-0.1,0-0.1,0-0.2,0c-0.9-0.1-1.7-0.4-2.4-0.7c-1.7-0.8-3.2-2-4.4-3.5c-1-1.2-1.7-2.4-2.2-3.6
			c-0.3-0.8-0.4-1.3-0.3-1.9c0.1-0.4,0.2-0.6,0.4-0.9l1-1c0.2-0.2,0.3-0.2,0.4-0.2c0.2,0,0.3,0.1,0.4,0.2l0,0
			c0.2,0.2,0.4,0.3,0.5,0.5c0.1,0.1,0.2,0.2,0.3,0.3l0.8,0.8c0.3,0.3,0.3,0.6,0,0.9c-0.1,0.1-0.2,0.2-0.3,0.3
			c-0.3,0.3-0.5,0.5-0.8,0.8l0,0c-0.3,0.3-0.2,0.5-0.2,0.7c0,0,0,0,0,0.1c0.2,0.5,0.5,1,1,1.6l0,0c0.8,1,1.7,1.8,2.7,2.4
			c0.1,0.1,0.3,0.2,0.4,0.2c0.1,0.1,0.2,0.1,0.3,0.2c0,0,0,0,0.1,0c0.1,0.1,0.2,0.1,0.3,0.1c0.3,0,0.4-0.2,0.4-0.2l1-1
			c0.1-0.1,0.3-0.2,0.4-0.2s0.3,0.1,0.4,0.2l0,0l1.7,1.7C24.2,131.2,24.2,131.5,24,131.8z"/>
		<path id="XMLID_100_" class="st1" d="M19.3,123.2c0.8,0.1,1.5,0.5,2.1,1.1c0.6,0.6,0.9,1.3,1.1,2.1c0.1,0.2,0.2,0.3,0.4,0.3h0.1
			c0.2-0.1,0.4-0.3,0.3-0.5c-0.2-1-0.6-1.8-1.3-2.5c-0.7-0.7-1.6-1.1-2.5-1.3c-0.2-0.1-0.4,0.1-0.5,0.3S19.1,123.2,19.3,123.2z"/>
		<path id="XMLID_99_" class="st1" d="M25.8,126.1c-0.3-1.6-1-3-2.2-4.1c-1.1-1.1-2.6-1.9-4.1-2.2c-0.2-0.1-0.4,0.1-0.5,0.3
			c-0.1,0.2,0.1,0.4,0.3,0.5c1.4,0.2,2.7,0.9,3.7,1.9c1,1,1.7,2.3,1.9,3.7c0.1,0.2,0.2,0.3,0.4,0.3h0.1
			C25.7,126.5,25.9,126.3,25.8,126.1z"/>
	</g>
</g>
<g id="XMLID_157_">
	<g id="XMLID_4_">
		<path id="XMLID_169_" class="st1" d="M5.5,133.9c-0.1,0-0.2-0.1-0.3-0.1c-0.2-0.2-5.2-5.6-5.2-8.6c0-3.1,2.5-5.5,5.5-5.5
			s5.5,2.5,5.5,5.5c0,3-5.1,8.3-5.3,8.6C5.8,133.8,5.7,133.9,5.5,133.9z M5.5,120.5c-2.6,0-4.7,2.1-4.7,4.7c0,2,3.2,6,4.7,7.7
			c1.6-1.7,4.7-5.7,4.7-7.7C10.3,122.6,8.1,120.5,5.5,120.5z"/>
	</g>
	<g id="XMLID_5_">
		<path id="XMLID_161_" class="st1" d="M5.5,126.9c-1.3,0-2.4-1.1-2.4-2.4c0-1.3,1.1-2.4,2.4-2.4s2.4,1.1,2.4,2.4
			C7.9,125.9,6.8,126.9,5.5,126.9z M5.5,123c-0.9,0-1.5,0.7-1.5,1.5c0,0.9,0.7,1.5,1.5,1.5c0.9,0,1.5-0.7,1.5-1.5S6.4,123,5.5,123z"
			/>
	</g>
</g>
<g id="XMLID_150_">
	<path id="XMLID_6_" class="st1" d="M28.3,132.8c-1,0-1.9-0.9-1.9-1.9v-8.6c0-1,0.9-1.9,1.9-1.9h12.5c0.5,0,1,0.2,1.3,0.5
		c0.4,0.4,0.5,0.9,0.5,1.3v8.6c0,1-0.9,1.9-1.9,1.9H28.3z M28.3,121.2c-0.7,0-1.2,0.5-1.2,1.2v8.6c0,0.7,0.5,1.2,1.2,1.2h12.5
		c0.7,0,1.2-0.5,1.2-1.2v-0.2l0,0v-8.5c0-0.7-0.5-1.2-1.2-1.2L28.3,121.2L28.3,121.2z"/>
	<path id="XMLID_92_" class="st1" d="M40.5,131.1c-0.1,0-0.2-0.1-0.2-0.1l-4.2-4l-1.2,1.1c-0.1,0.1-0.2,0.1-0.2,0.1s-0.2,0-0.2-0.1
		l-1.2-1.1l-4.3,4c-0.1,0.1-0.2,0.1-0.2,0.1c-0.1,0-0.2-0.1-0.3-0.1c-0.1-0.1-0.1-0.3,0-0.5l4.2-3.9l-4.2-3.8
		c-0.1-0.1-0.1-0.2-0.1-0.2c0-0.1,0-0.2,0.1-0.2c0.1-0.1,0.2-0.1,0.3-0.1c0.1,0,0.2,0.1,0.2,0.1l5.7,5.1l5.7-5.1
		c0.1-0.1,0.2-0.1,0.2-0.1c0.1,0,0.2,0.1,0.3,0.1c0.1,0.2,0.1,0.3,0,0.5l-4.1,3.7l4.2,4c0.1,0.1,0.1,0.2,0.1,0.2
		c0,0.1-0.1,0.2-0.1,0.2C40.6,131.1,40.5,131.1,40.5,131.1z"/>
</g>
<g id="XMLID_131_">
	<g id="XMLID_132_">
		<g id="XMLID_137_">
			<path id="XMLID_172_" class="st2" d="M155.3,58.7h-19.2v-6.4c0-1.5-0.8-2.7-2-3.3c0.4-0.7,0.7-1.5,0.7-2.4c0-1.7-0.9-3.2-2.5-4
				l-2.6-1.3v-3.1h-2.5v4.6l4.1,2c0.6,0.3,1,1,1,1.7c0,0.8-0.5,1.5-1.3,1.8V46h-2.5v2.5v1.3v1.3v1.3c0,0.7-0.6,1.3-1.3,1.3
				s-1.3-0.6-1.3-1.3h-2.5c0,0.7-0.6,1.3-1.3,1.3s-1.3-0.6-1.3-1.3h-2.5c0,0.7-0.6,1.3-1.3,1.3c-0.7,0-1.3-0.6-1.3-1.3h-2.5
				c0,0.7-0.6,1.3-1.3,1.3s-1.3-0.6-1.3-1.3v-6.2l1.3-3.8v-4h-2.5v3.6l-1.3,3.8v2.7h-1.3c-2.1,0-3.8,1.7-3.8,3.8v6.4H83.7
				c-2.1,0-3.8,1.7-3.8,3.8v46c0,1.7,1.1,3.1,2.5,3.6v1.5c0,1.4,1.1,2.5,2.5,2.5h5.1c1.4,0,2.5-1.1,2.5-2.5v-1.3h53.7v1.3
				c0,1.4,1.1,2.5,2.5,2.5h5.1c1.4,0,2.5-1.1,2.5-2.5v-1.5c1.5-0.5,2.5-1.9,2.5-3.6v-46C159.2,60.5,157.4,58.7,155.3,58.7z
				 M131,52.4v-1.3h1.3c0.7,0,1.3,0.6,1.3,1.3v1.3h-2.8C130.9,53.2,131,52.8,131,52.4z M106.7,51.1h1.3v1.3c0,0.4,0.1,0.9,0.2,1.3
				h-2.8v-1.3C105.4,51.7,106,51.1,106.7,51.1z M105.4,56.2h6.4c1,0,1.9-0.4,2.5-1c0.7,0.6,1.6,1,2.5,1c1,0,1.9-0.4,2.5-1
				c0.7,0.6,1.6,1,2.5,1s1.9-0.4,2.5-1c0.7,0.6,1.6,1,2.5,1h6.4v2.5h-28.1v-2.5H105.4z M90.1,113.7H85v-1.3h5.1V113.7L90.1,113.7z
				 M154,113.7h-5.1v-1.3h5.1V113.7z M156.6,108.6c0,0.7-0.6,1.3-1.3,1.3h-8.9H92.7h-8.9c-0.7,0-1.3-0.6-1.3-1.3v-46
				c0-0.7,0.6-1.3,1.3-1.3h71.6c0.7,0,1.3,0.6,1.3,1.3L156.6,108.6L156.6,108.6z"/>
			<path id="XMLID_167_" class="st2" d="M115.4,64.6L101.1,70l16.1,8.9L115.4,64.6z M107.2,70.5l6.1-2.3l0.8,6.1L107.2,70.5z"/>
			<path id="XMLID_163_" class="st2" d="M119,100.4l5.2,8.6l11.1-6.4l-5.2-8.6L119,100.4z M125.1,105.6l-2.5-4.2l6.7-3.8l2.5,4.2
				L125.1,105.6z"/>
			<path id="XMLID_160_" class="st2" d="M112.5,84.3c-3.2,0-5.8,2.6-5.8,5.8c0,3.2,2.6,5.8,5.8,5.8c3.2,0,5.8-2.6,5.8-5.8
				C118.2,86.9,115.7,84.3,112.5,84.3z M112.5,93.3c-1.8,0-3.2-1.5-3.2-3.2c0-1.7,1.5-3.2,3.2-3.2c1.8,0,3.2,1.5,3.2,3.2
				C115.7,91.8,114.3,93.3,112.5,93.3z"/>
			<path id="XMLID_151_" class="st2" d="M129.1,74.1c3.2,0,5.8-2.6,5.8-5.8c0-3.2-2.6-5.8-5.8-5.8c-3.2,0-5.8,2.6-5.8,5.8
				C123.4,71.5,125.9,74.1,129.1,74.1z M129.1,65.1c1.8,0,3.2,1.5,3.2,3.2c0,1.8-1.5,3.2-3.2,3.2c-1.8,0-3.2-1.5-3.2-3.2
				C125.9,66.6,127.3,65.1,129.1,65.1z"/>
			<path id="XMLID_76_" class="st1" d="M100.3,112.4h-7.6V58.8h7.6V112.4z"/>
			<path id="XMLID_75_" class="st1" d="M146.3,112.4h-7.6V58.8h7.6V112.4z"/>
			<path id="XMLID_143_" class="st2" d="M101.6,83.1H91.4c-1.4,0-2.5,1.1-2.5,2.5v7.6c0,1.4,1.1,2.5,2.5,2.5h10.2
				c1.4,0,2.5-1.1,2.5-2.5v-7.6C104.2,84.2,103,83.1,101.6,83.1z M91.4,93.3v-7.7h10.2v7.6L91.4,93.3L91.4,93.3z"/>
			<path id="XMLID_138_" class="st2" d="M147.6,83.1h-10.2c-1.4,0-2.5,1.1-2.5,2.5v7.6c0,1.4,1.1,2.5,2.5,2.5h10.2
				c1.4,0,2.5-1.1,2.5-2.5v-7.6C150.2,84.2,149,83.1,147.6,83.1z M137.4,93.3v-7.7h10.2v7.6L137.4,93.3L137.4,93.3z"/>
		</g>
	</g>
</g>
<g id="XMLID_33_">
	<g id="XMLID_120_">
		<g id="XMLID_125_">
			<polygon id="XMLID_70_" class="st2" points="0.1,116.3 19.3,116.3 19.3,113.7 2.7,113.7 2.7,71.5 19.3,71.5 19.3,69 0.1,69 			
				"/>
			<polygon id="XMLID_69_" class="st2" points="60.2,69 60.2,71.5 76.8,71.5 76.8,113.7 60.2,113.7 60.2,116.3 79.3,116.3 79.3,69 
							"/>
			<path id="XMLID_191_" class="st2" d="M14.2,75.4H6.5V83h7.6L14.2,75.4z M11.6,80.5H9.1v-2.5h2.5V80.5z"/>
			<path id="XMLID_188_" class="st2" d="M14.2,86.9H6.5v7.6h7.6L14.2,86.9z M11.6,92H9.1v-2.5h2.5V92z"/>
			<path id="XMLID_185_" class="st2" d="M6.5,106h7.6v-7.6H6.5V106z M9.1,100.9h2.5v2.5H9.1V100.9z"/>
			<path id="XMLID_182_" class="st2" d="M73,75.4h-7.6V83H73V75.4z M70.4,80.5h-2.5v-2.5h2.5V80.5z"/>
			<path id="XMLID_179_" class="st2" d="M65.3,94.5h7.6v-7.6h-7.6V94.5L65.3,94.5z M67.9,89.4h2.5v2.5h-2.5V89.4z"/>
			<path id="XMLID_176_" class="st2" d="M65.3,106h7.6v-7.6h-7.6V106L65.3,106z M67.9,100.9h2.5v2.5h-2.5V100.9z"/>
			<path id="XMLID_56_" class="st1" d="M61.5,116.3H18v-69h43.4L61.5,116.3L61.5,116.3z"/>
			<polygon id="XMLID_55_" class="st2" points="60.2,39.6 60.2,37 57.6,37 56.4,37 23.1,37 21.9,37 19.3,37 19.3,39.6 21.9,39.6 
				21.9,48.5 24.4,48.5 24.4,39.6 55.1,39.6 55.1,48.5 57.6,48.5 57.6,39.6 			"/>
			<path id="XMLID_171_" class="st2" d="M32.1,53.6h-7.7v7.6H32L32.1,53.6L32.1,53.6z M29.5,58.7H27v-2.5h2.5V58.7z"/>
			<path id="XMLID_168_" class="st2" d="M43.6,53.6h-7.7v7.6h7.7C43.6,61.3,43.6,53.6,43.6,53.6z M41,58.7h-2.5v-2.5H41V58.7z"/>
			<path id="XMLID_165_" class="st2" d="M55.1,53.6h-7.6v7.6h7.6L55.1,53.6L55.1,53.6z M52.5,58.7H50v-2.5h2.5V58.7z"/>
			<path id="XMLID_159_" class="st2" d="M52.5,93.2H27h-1.3h-2.5v2.5h2.5v20.5h28.1V95.8h2.5v-2.5h-2.5H52.5L52.5,93.2z M28.3,95.8
				h10.2v5.1h-1.3c-2.1,0-3.8,1.7-3.8,3.8s1.7,3.8,3.8,3.8h1.3v5.1H28.3V95.8z M38.5,106h-1.3c-0.7,0-1.3-0.6-1.3-1.3
				s0.6-1.3,1.3-1.3h1.3V106z M41,103.5h1.3c0.7,0,1.3,0.6,1.3,1.3S43,106,42.3,106H41C41,106,41,103.5,41,103.5z M51.2,113.7H41
				v-5.1h1.3c2.1,0,3.8-1.7,3.8-3.8s-1.7-3.8-3.8-3.8H41v-5.1h10.2V113.7z"/>
			<path id="XMLID_152_" class="st2" d="M24.4,72.8H32v-7.7h-7.6V72.8z M27,67.7h2.5v2.5H27V67.7z"/>
			<path id="XMLID_148_" class="st2" d="M35.9,72.8h7.7v-7.7h-7.7V72.8z M38.5,67.7H41v2.5h-2.5V67.7z"/>
			<path id="XMLID_145_" class="st2" d="M47.4,72.8h7.6v-7.7h-7.6V72.8z M49.9,67.7h2.5v2.5h-2.5V67.7z"/>
			<path id="XMLID_142_" class="st2" d="M24.4,84.3H32v-7.6h-7.6V84.3z M27,79.2h2.5v2.5H27V79.2z"/>
			<path id="XMLID_139_" class="st2" d="M35.9,84.3h7.7v-7.6h-7.7V84.3z M38.5,79.2H41v2.5h-2.5V79.2z"/>
			<path id="XMLID_136_" class="st2" d="M47.4,84.3h7.6v-7.6h-7.6V84.3z M49.9,79.2h2.5v2.5h-2.5V79.2z"/>
			<rect id="XMLID_27_" x="23.1" y="88.1" class="st2" width="28.1" height="2.5"/>
			<rect id="XMLID_26_" x="53.8" y="88.1" class="st2" width="2.5" height="2.5"/>
		</g>
	</g>
</g>
<g id="XMLID_124_">
	<path id="XMLID_135_" class="st3" d="M148.1,0.1h-7.8c-2.6,0-4.8,2.2-4.8,4.8v7.8c0,2.6,2.2,4.8,4.8,4.8h7.8c2.6,0,4.8-2.2,4.8-4.8
		V4.9C152.9,2.2,150.7,0.1,148.1,0.1z M151.3,12.6c0,1.8-1.5,3.2-3.2,3.2h-7.8c-1.8,0-3.2-1.5-3.2-3.2V4.9c0-1.8,1.5-3.2,3.2-3.2
		h7.8c1.8,0,3.2,1.5,3.2,3.2V12.6L151.3,12.6z"/>
	<path id="XMLID_129_" class="st3" d="M144.2,4.3c-2.5,0-4.5,2-4.5,4.5s2,4.5,4.5,4.5s4.5-2,4.5-4.5S146.7,4.3,144.2,4.3z
		 M144.2,11.6c-1.6,0-2.9-1.3-2.9-2.9s1.3-2.9,2.9-2.9s2.9,1.3,2.9,2.9C147.1,10.3,145.8,11.6,144.2,11.6z"/>
	<path id="XMLID_20_" class="st3" d="M148.9,3c-0.3,0-0.6,0.1-0.8,0.3c-0.2,0.2-0.3,0.5-0.3,0.8c0,0.3,0.1,0.6,0.3,0.8
		c0.2,0.2,0.5,0.3,0.8,0.3c0.3,0,0.6-0.1,0.8-0.3c0.2-0.2,0.3-0.5,0.3-0.8c0-0.3-0.1-0.6-0.3-0.8C149.5,3.1,149.1,3,148.9,3z"/>
</g>
<g id="XMLID_117_">
	<path id="XMLID_19_" class="st3" d="M134.1,12.4c-0.6-0.8-1.4-1.4-2.1-2.1c-0.6-0.6-0.7-1-0.2-1.7c0.5-0.8,1.2-1.6,1.7-2.3
		c0.5-0.8,1.1-1.5,1.3-2.3c0.2-0.5,0-0.8-0.5-0.9c-0.1,0-0.2,0-0.3,0h-3.4c-0.4,0-0.6,0.2-0.8,0.5c-0.2,0.5-0.4,1-0.6,1.5
		c-0.5,1.1-1.1,2.2-2,3c-0.2,0.2-0.4,0.4-0.7,0.3c-0.4-0.2-0.5-0.8-0.5-1V3.5c-0.1-0.5-0.2-0.8-0.8-0.9h-3.5c-0.5,0-0.7,0.2-1,0.5
		c-0.2,0.2-0.2,0.3,0.1,0.3c0.6,0.1,0.9,0.5,1,1.1c0.2,0.9,0.1,1.9,0.1,2.8c0,0.3-0.1,0.5-0.2,0.8c-0.2,0.4-0.4,0.5-0.8,0.2
		c-0.3-0.2-0.5-0.5-0.8-0.9c-0.9-1.2-1.5-2.5-2-3.8c-0.2-0.4-0.4-0.6-0.9-0.6c-1,0-2,0-3,0c-0.6,0-0.8,0.3-0.5,0.9
		c1.1,2.5,2.3,4.8,3.9,7c0.8,1.1,1.8,2.1,3,2.8c1.4,0.8,2.9,1,4.5,1c0.8-0.1,1-0.2,1-1c0-0.5,0.1-1,0.3-1.5c0.3-0.4,0.6-0.5,1-0.3
		c0.2,0.2,0.4,0.3,0.5,0.5c0.4,0.4,0.8,0.9,1.2,1.3c0.5,0.5,1.2,0.9,2,0.8h3.1c0.5-0.1,0.8-0.6,0.5-1.2
		C134.7,13.1,134.4,12.8,134.1,12.4z"/>
</g>
<g>
	<g>
		<path class="st4" d="M99,118.6h-2.4V118c0-0.4-0.2-0.6-0.6-0.6c-0.4,0-0.6,0.2-0.6,0.6v0.6h-5.9V118c0-0.4-0.2-0.6-0.6-0.6
			c-0.4,0-0.6,0.2-0.6,0.6v0.6H86c-1.7,0-3,1.3-3,3v10.7c0,1.7,1.3,3,3,3H99c1.7,0,3-1.3,3-3v-10.7C102,119.9,100.7,118.6,99,118.6
			L99,118.6z M84.2,121.6c0-1,0.8-1.8,1.8-1.8h2.4v0.6c0,0.4,0.2,0.6,0.6,0.6c0.4,0,0.6-0.2,0.6-0.6v-0.6h5.9v0.6
			c0,0.4,0.2,0.6,0.6,0.6c0.4,0,0.6-0.2,0.6-0.6v-0.6H99c1,0,1.8,0.8,1.8,1.8v1.8H84.2V121.6L84.2,121.6z M100.8,132.3
			c0,1-0.8,1.8-1.8,1.8H86c-1,0-1.8-0.8-1.8-1.8v-7.7h16.6V132.3z"/>
		<path class="st4" d="M87.2,132.3c0.4,0,0.6-0.1,0.8-0.4s0.4-0.6,0.4-0.8c0-0.2-0.1-0.6-0.4-0.8c-0.5-0.5-1.2-0.5-1.7,0
			c-0.2,0.2-0.4,0.5-0.4,0.8c0,0.2,0.1,0.6,0.4,0.8C86.6,132.2,86.8,132.3,87.2,132.3z"/>
		<path class="st4" d="M87.2,128.7c0.4,0,0.6-0.1,0.8-0.4s0.4-0.6,0.4-0.8c0-0.2-0.1-0.6-0.4-0.8c-0.5-0.5-1.2-0.5-1.7,0
			c-0.2,0.2-0.4,0.5-0.4,0.8c0,0.4,0.1,0.6,0.4,0.8C86.6,128.6,86.8,128.7,87.2,128.7z"/>
		<path class="st4" d="M90.7,132.3c0.4,0,0.6-0.1,0.8-0.4s0.4-0.6,0.4-0.8c0-0.2-0.1-0.6-0.4-0.8c-0.5-0.5-1.2-0.5-1.7,0
			c-0.2,0.2-0.4,0.6-0.4,0.8c0,0.2,0.1,0.6,0.4,0.8C90.1,132.2,90.4,132.3,90.7,132.3z"/>
		<path class="st4" d="M90.7,128.7c0.4,0,0.6-0.1,0.8-0.4s0.4-0.6,0.4-0.8c0-0.2-0.1-0.6-0.4-0.8c-0.5-0.5-1.2-0.5-1.7,0
			c-0.2,0.2-0.4,0.6-0.4,0.8c0,0.2,0.1,0.6,0.4,0.8C90.1,128.6,90.4,128.7,90.7,128.7z"/>
		<path class="st4" d="M94.3,132.3c0.4,0,0.6-0.1,0.8-0.4s0.4-0.5,0.4-0.8s-0.1-0.6-0.4-0.8c-0.5-0.5-1.2-0.5-1.7,0
			c-0.2,0.2-0.4,0.6-0.4,0.8c0,0.2,0.1,0.6,0.4,0.8C93.7,132.2,93.9,132.3,94.3,132.3z"/>
		<path class="st4" d="M94.3,128.7c0.4,0,0.6-0.1,0.8-0.4s0.4-0.5,0.4-0.8c0-0.2-0.1-0.6-0.4-0.8c-0.5-0.5-1.2-0.5-1.7,0
			c-0.2,0.2-0.4,0.6-0.4,0.8c0,0.2,0.1,0.6,0.4,0.8C93.7,128.6,93.9,128.7,94.3,128.7z"/>
		<path class="st4" d="M97.8,132.3c0.4,0,0.6-0.1,0.8-0.4c0.2-0.2,0.4-0.6,0.4-0.8c0-0.2-0.1-0.6-0.4-0.8c-0.5-0.5-1.2-0.5-1.7,0
			c-0.2,0.2-0.4,0.5-0.4,0.8c0,0.2,0.1,0.6,0.4,0.8S97.5,132.3,97.8,132.3z"/>
		<path class="st4" d="M97.8,128.7c0.4,0,0.6-0.1,0.8-0.4c0.2-0.2,0.4-0.5,0.4-0.8c0-0.2-0.1-0.6-0.4-0.8c-0.5-0.5-1.2-0.5-1.7,0
			c-0.2,0.2-0.4,0.6-0.4,0.8c0,0.2,0.1,0.6,0.4,0.8S97.5,128.7,97.8,128.7z"/>
	</g>
</g>
<g>
	<path class="st4" d="M73.6,123.9h-7.5c-0.2,0-0.3,0.1-0.3,0.3s0.1,0.3,0.3,0.3h7.5c0.2,0,0.3-0.1,0.3-0.3S73.7,123.9,73.6,123.9z"
		/>
	<path class="st4" d="M66.1,122.1h3c0.2,0,0.3-0.1,0.3-0.3c0-0.2-0.1-0.3-0.3-0.3h-3c-0.2,0-0.3,0.1-0.3,0.3
		C65.8,121.9,65.9,122.1,66.1,122.1z"/>
	<path class="st4" d="M73.9,126.6c0-0.2-0.1-0.3-0.3-0.3h-7.5c-0.2,0-0.3,0.1-0.3,0.3c0,0.2,0.1,0.3,0.3,0.3h7.5
		C73.7,126.9,73.9,126.7,73.9,126.6z"/>
	<path class="st4" d="M71.5,129c0-0.2-0.1-0.3-0.3-0.3h-5.1c-0.2,0-0.3,0.1-0.3,0.3s0.1,0.3,0.3,0.3h5.1
		C71.3,129.3,71.5,129.1,71.5,129z"/>
	<path class="st4" d="M66.1,131.1c-0.2,0-0.3,0.1-0.3,0.3s0.1,0.3,0.3,0.3h4.2c0.2,0,0.3-0.1,0.3-0.3s-0.1-0.3-0.3-0.3H66.1z"/>
	<path class="st4" d="M63.4,117.9h8.7v4.2h4.2v5.1h0.6v-5.5l-4.4-4.4h-9.7v18h9v-0.6h-8.4V117.9z M72.7,118.3l3.2,3.2h-3.2V118.3z"
		/>
	<path class="st4" d="M80.7,134.3l-3.6-6.1c-0.1-0.2-0.3-0.3-0.6-0.3c-0.2,0-0.5,0.1-0.6,0.3l-3.6,6.1c-0.1,0.2-0.1,0.5,0,0.7
		s0.3,0.3,0.6,0.3h7.1c0.2,0,0.5-0.1,0.6-0.3C80.8,134.7,80.8,134.5,80.7,134.3z M80.2,134.6C80.2,134.6,80.1,134.7,80.2,134.6
		l-7.2,0c0,0-0.1,0-0.1,0c0,0,0,0,0-0.1l3.6-6.1c0,0,0,0,0.1,0c0,0,0,0,0.1,0L80.2,134.6C80.2,134.6,80.2,134.6,80.2,134.6z"/>
	<path class="st4" d="M76.6,129.9c-0.2,0-0.3,0.1-0.3,0.3v2.4c0,0.2,0.1,0.3,0.3,0.3s0.3-0.1,0.3-0.3v-2.4
		C76.9,130,76.7,129.9,76.6,129.9z"/>
	<path class="st4" d="M76.4,133.6c-0.1,0.1-0.1,0.1-0.1,0.2c0,0.1,0,0.2,0.1,0.2c0.1,0.1,0.1,0.1,0.2,0.1c0.1,0,0.2,0,0.2-0.1
		c0.1-0.1,0.1-0.1,0.1-0.2c0-0.1,0-0.2-0.1-0.2C76.7,133.4,76.5,133.4,76.4,133.6z"/>
</g>
<path id="XMLID_15_" class="st5" d="M110.1,127.9L110.1,127.9l-4.7-6.5c-0.1-0.3-0.6-0.3-0.9-0.1c-0.3,0.1-0.3,0.6-0.1,0.9l4.4,6
	l-4.4,6c-0.1,0.3-0.1,0.7,0.1,0.9c0.1,0.1,0.3,0.1,0.4,0.1c0.1,0,0.4-0.1,0.6-0.3l4.6-6.3l0,0C110.4,128.2,110.2,128.1,110.1,127.9
	L110.1,127.9z"/>
<g>
	<g>
		<path class="st0" d="M36.2,19.3h3.7v3.1c0,0.2,0,0.3,0.1,0.4c0.1,0.1,0.2,0.1,0.4,0.1h2.7c0.1,0,0.3,0,0.4-0.1
			c0.1-0.1,0.2-0.2,0.2-0.4v-3.1h8.2c0.2,0,0.3,0,0.4-0.1c0.1-0.1,0.1-0.2,0.1-0.4v-2.1c0-0.2,0-0.3-0.1-0.4
			c-0.1-0.1-0.2-0.1-0.4-0.1h-8.2v-1.9h5.6c2.2,0,4-0.7,5.3-2c1.4-1.3,2.1-3,2.1-5.1c0-2.1-0.7-3.8-2.1-5.1c-1.4-1.3-3.2-2-5.3-2
			h-8.8c-0.2,0-0.3,0-0.4,0.1c-0.1,0.1-0.1,0.2-0.1,0.4v10.3h-3.7c-0.2,0-0.3,0.1-0.4,0.2c-0.1,0.1-0.1,0.2-0.1,0.4v2.4
			c0,0.2,0,0.3,0.1,0.4c0.1,0.1,0.2,0.1,0.4,0.1h3.7v1.9h-3.7c-0.2,0-0.3,0-0.4,0.1c-0.1,0.1-0.1,0.2-0.1,0.4v2.1
			c0,0.2,0,0.3,0.1,0.4C36,19.3,36.1,19.3,36.2,19.3z M43.7,3.5h5.2c1.2,0,2.1,0.3,2.8,1c0.7,0.7,1.1,1.6,1.1,2.6
			c0,1.1-0.4,2-1.1,2.6c-0.7,0.7-1.6,1-2.8,1h-5.2V3.5z"/>
	</g>
</g>
<g>
	<g>
		<path class="st0" d="M113,133.3h1.9v1.6c0,0.1,0,0.1,0.1,0.2c0.1,0.1,0.1,0.1,0.2,0.1h1.4c0.1,0,0.1,0,0.2-0.1
			c0.1-0.1,0.1-0.1,0.1-0.2v-1.6h4.3c0.1,0,0.1,0,0.2-0.1c0.1-0.1,0.1-0.1,0.1-0.2V132c0-0.1,0-0.1-0.1-0.2
			c-0.1-0.1-0.1-0.1-0.2-0.1h-4.3v-1h2.9c1.1,0,2.1-0.3,2.8-1c0.7-0.7,1.1-1.6,1.1-2.7c0-1.1-0.4-2-1.1-2.7c-0.7-0.7-1.6-1-2.8-1
			h-4.6c-0.1,0-0.1,0-0.2,0.1c-0.1,0.1-0.1,0.1-0.1,0.2v5.4H113c-0.1,0-0.1,0-0.2,0.1c-0.1,0.1-0.1,0.1-0.1,0.2v1.3
			c0,0.1,0,0.1,0.1,0.2c0.1,0.1,0.1,0.1,0.2,0.1h1.9v1H113c-0.1,0-0.1,0-0.2,0.1c-0.1,0.1-0.1,0.1-0.1,0.2v1.1c0,0.1,0,0.1,0.1,0.2
			C112.9,133.3,112.9,133.3,113,133.3z M116.9,125.1h2.7c0.6,0,1.1,0.2,1.5,0.5c0.4,0.4,0.6,0.8,0.6,1.4c0,0.6-0.2,1-0.6,1.4
			c-0.4,0.4-0.9,0.5-1.5,0.5h-2.7V125.1z"/>
	</g>
</g>
<g>
	<g>
		<path class="st6" d="M26.3,7.1c0,0-23.8,0-23.8,0l5-5.6c0.3-0.4,0.3-0.9-0.1-1.2C7-0.1,6.5-0.1,6.2,0.3L0.5,6.6
			c-0.7,0.8-0.7,1.9,0,2.7l5.6,6.3c0.2,0.2,0.4,0.3,0.7,0.3c0.2,0,0.4-0.1,0.6-0.2c0.4-0.3,0.4-0.9,0.1-1.2l-5-5.6
			c0,0,23.8,0,23.8,0c3.8,0,6.9,3.1,6.9,6.9s-3.1,6.9-6.9,6.9h-4.2c-0.5,0-0.9,0.4-0.9,0.9c0,0.5,0.4,0.9,0.9,0.9h4.2
			c4.8,0,8.7-3.9,8.7-8.7C35,11,31.1,7.1,26.3,7.1z"/>
	</g>
</g>
<g>
	<path class="st0" d="M126,120.1h3.2c0.3,1,1.2,1.8,2.3,1.8c1.1,0,2-0.8,2.3-1.8h10c0.3,0,0.6-0.3,0.6-0.6s-0.3-0.6-0.6-0.6h-10
		c-0.3-1-1.2-1.8-2.3-1.8s-2,0.8-2.3,1.8H126c-0.3,0-0.6,0.3-0.6,0.6S125.7,120.1,126,120.1z M131.5,118.4c0.6,0,1.2,0.5,1.2,1.2
		c0,0.6-0.5,1.2-1.2,1.2c-0.6,0-1.2-0.5-1.2-1.2C130.3,118.9,130.8,118.4,131.5,118.4z"/>
	<path class="st0" d="M143.8,125.6h-4.1c-0.3-1-1.2-1.8-2.3-1.8s-2,0.8-2.3,1.8H126c-0.3,0-0.6,0.3-0.6,0.6s0.3,0.6,0.6,0.6h9.1
		c0.3,1,1.2,1.8,2.3,1.8c1.1,0,2-0.8,2.3-1.8h4.1c0.3,0,0.6-0.3,0.6-0.6S144.1,125.6,143.8,125.6z M137.4,127.4
		c-0.6,0-1.2-0.5-1.2-1.2c0-0.6,0.5-1.2,1.2-1.2c0.6,0,1.2,0.5,1.2,1.2C138.6,126.8,138,127.4,137.4,127.4z"/>
	<path class="st0" d="M143.8,132.2h-10c-0.3-1-1.2-1.8-2.3-1.8s-2,0.8-2.3,1.8H126c-0.3,0-0.6,0.3-0.6,0.6c0,0.3,0.3,0.6,0.6,0.6
		h3.2c0.3,1,1.2,1.8,2.3,1.8c1.1,0,2-0.8,2.3-1.8h10c0.3,0,0.6-0.3,0.6-0.6C144.4,132.5,144.1,132.2,143.8,132.2z M131.5,134
		c-0.6,0-1.2-0.5-1.2-1.2s0.5-1.2,1.2-1.2c0.6,0,1.2,0.5,1.2,1.2S132.1,134,131.5,134z"/>
</g>
</svg>
