<?xml version="1.0" encoding="utf-8"?>
<!-- Generator: Adobe Illustrator 19.0.0, SVG Export Plug-In . SVG Version: 6.00 Build 0)  -->
<svg version="1.1" id="Слой_1" xmlns="http://www.w3.org/2000/svg" xmlns:xlink="http://www.w3.org/1999/xlink" x="0px" y="0px"
	 viewBox="0 0 35 31.3" style="enable-background:new 0 0 35 31.3;" xml:space="preserve">
<style type="text/css">
	.st0{fill:#FFE329;}
	.st1{fill:#FFFFFF;}
	.st2{fill:#7FCC97;}
	.st3{fill:#FC5E59;}
</style>
<g>
	<g id="XMLID_424_">
		<g id="XMLID_438_">
			<circle id="XMLID_445_" class="st0" cx="4.9" cy="15.6" r="4.4"/>
			<path id="XMLID_442_" class="st1" d="M4.9,20.5c-2.7,0-4.9-2.2-4.9-4.9c0-2.7,2.2-4.9,4.9-4.9s4.9,2.2,4.9,4.9S7.6,20.5,4.9,20.5
				z M4.9,11.8c-2.1,0-3.9,1.7-3.9,3.9s1.7,3.9,3.9,3.9c2.1,0,3.9-1.7,3.9-3.9S7,11.8,4.9,11.8z"/>
		</g>
		<g id="XMLID_432_">
			<circle id="XMLID_437_" class="st0" cx="17.5" cy="15.6" r="4.4"/>
			<path id="XMLID_433_" class="st1" d="M17.5,20.5c-2.7,0-4.9-2.2-4.9-4.9c0-2.7,2.2-4.9,4.9-4.9s4.9,2.2,4.9,4.9
				S20.2,20.5,17.5,20.5z M17.5,11.8c-2.1,0-3.9,1.7-3.9,3.9s1.7,3.9,3.9,3.9s3.9-1.7,3.9-3.9S19.6,11.8,17.5,11.8z"/>
		</g>
		<g id="XMLID_425_">
			<circle id="XMLID_431_" class="st1" cx="30.1" cy="15.6" r="4.4"/>
			<path id="XMLID_426_" class="st1" d="M30.1,20.5c-2.7,0-4.9-2.2-4.9-4.9c0-2.7,2.2-4.9,4.9-4.9s4.9,2.2,4.9,4.9
				S32.7,20.5,30.1,20.5z M30.1,11.8c-2.1,0-3.9,1.7-3.9,3.9s1.7,3.9,3.9,3.9s3.9-1.7,3.9-3.9S32.2,11.8,30.1,11.8z"/>
		</g>
	</g>
	<g id="XMLID_337_">
		<g id="XMLID_389_">
			<circle id="XMLID_402_" class="st2" cx="4.9" cy="26.4" r="4.4"/>
			<path id="XMLID_403_" class="st1" d="M4.9,31.3c-2.7,0-4.9-2.2-4.9-4.9c0-2.7,2.2-4.9,4.9-4.9s4.9,2.2,4.9,4.9S7.6,31.3,4.9,31.3
				z M4.9,22.5c-2.1,0-3.9,1.7-3.9,3.9c0,2.2,1.7,3.9,3.9,3.9s3.9-1.7,3.9-3.9C8.8,24.2,7,22.5,4.9,22.5z"/>
		</g>
		<g id="XMLID_388_">
			<circle id="XMLID_398_" class="st1" cx="17.5" cy="26.4" r="4.4"/>
			<path id="XMLID_399_" class="st1" d="M17.5,31.3c-2.7,0-4.9-2.2-4.9-4.9c0-2.7,2.2-4.9,4.9-4.9s4.9,2.2,4.9,4.9
				S20.2,31.3,17.5,31.3z M17.5,22.5c-2.1,0-3.9,1.7-3.9,3.9c0,2.2,1.7,3.9,3.9,3.9s3.9-1.7,3.9-3.9C21.4,24.2,19.6,22.5,17.5,22.5z
				"/>
		</g>
		<g id="XMLID_387_">
			<circle id="XMLID_394_" class="st1" cx="30.1" cy="26.4" r="4.4"/>
			<path id="XMLID_395_" class="st1" d="M30.1,31.3c-2.7,0-4.9-2.2-4.9-4.9c0-2.7,2.2-4.9,4.9-4.9s4.9,2.2,4.9,4.9
				S32.7,31.3,30.1,31.3z M30.1,22.5c-2.1,0-3.9,1.7-3.9,3.9c0,2.2,1.7,3.9,3.9,3.9s3.9-1.7,3.9-3.9C34,24.2,32.2,22.5,30.1,22.5z"
				/>
		</g>
	</g>
	<g id="XMLID_347_">
		<g id="XMLID_357_">
			<circle id="XMLID_390_" class="st3" cx="4.9" cy="4.9" r="4.4"/>
			<path id="XMLID_391_" class="st1" d="M4.9,9.8C2.2,9.8,0,7.6,0,4.9C0,2.2,2.2,0,4.9,0s4.9,2.2,4.9,4.9S7.6,9.8,4.9,9.8z M4.9,1
				C2.7,1,1,2.7,1,4.9c0,2.2,1.7,3.9,3.9,3.9S8.8,7,8.8,4.9S7,1,4.9,1z"/>
		</g>
		<g id="XMLID_356_">
			<circle id="XMLID_383_" class="st3" cx="17.5" cy="4.9" r="4.4"/>
			<path id="XMLID_384_" class="st1" d="M17.5,9.8c-2.7,0-4.9-2.2-4.9-4.9c0-2.7,2.2-4.9,4.9-4.9s4.9,2.2,4.9,4.9S20.2,9.8,17.5,9.8
				z M17.5,1c-2.1,0-3.9,1.7-3.9,3.9c0,2.2,1.7,3.9,3.9,3.9s3.9-1.7,3.9-3.9C21.4,2.7,19.6,1,17.5,1z"/>
		</g>
		<g id="XMLID_351_">
			<circle id="XMLID_377_" class="st3" cx="30.1" cy="4.9" r="4.4"/>
			<path id="XMLID_378_" class="st1" d="M30.1,9.8c-2.7,0-4.9-2.2-4.9-4.9c0-2.7,2.2-4.9,4.9-4.9S35,2.2,35,4.9S32.7,9.8,30.1,9.8z
				 M30.1,1c-2.1,0-3.9,1.7-3.9,3.9c0,2.2,1.7,3.9,3.9,3.9c2.1,0,3.9-1.7,3.9-3.9C34,2.7,32.2,1,30.1,1z"/>
		</g>
	</g>
</g>
</svg>
