<?xml version="1.0" encoding="utf-8"?>
<!-- Generator: Adobe Illustrator 19.0.0, SVG Export Plug-In . SVG Version: 6.00 Build 0)  -->
<svg version="1.1" id="Слой_1" xmlns="http://www.w3.org/2000/svg" xmlns:xlink="http://www.w3.org/1999/xlink" x="0px" y="0px"
	 viewBox="-216 403.9 162.9 35" style="enable-background:new -216 403.9 162.9 35;" xml:space="preserve">
<style type="text/css">
	.st0{fill:#FFFFFF;}
</style>
<g>
	<g id="XMLID_1_">
		<g id="XMLID_20_">
			<g id="XMLID_33_">
				<path id="XMLID_35_" class="st0" d="M-175.6,424c-0.7-0.8-1.9-1.2-2.8-1.5c-1.1-0.4-2.3-0.3-3.4-0.2c-2.2,0.2-4.3,0.7-6.5,0.3
					c-1.8-0.3-3.3-1.2-4.3-2.8c-0.8-1.2-1.4-2.9-3-3.2c-0.5-0.1-0.9,0.1-1.1,0.6c-0.1,0.4-0.1,1.1,0.3,1.3c0.2,0.1,0.6,0.1,0.8,0
					s0.1-0.3,0.4-0.1c0.3,0.2,0.3,0.7,0.2,1c-0.3,0.7-1.4,0.7-2,0.4c-0.6-0.3-1.1-0.9-1.3-1.5c-0.4-1-0.4-2.4,0.6-3
					c1.3-0.7,3.2-0.1,4.4,0.6c0.6,0.4,1.7,1.1,1.8,2c0,0.2,0.3,0,0.4-0.1c0.3-0.2,0.5-0.6,0.7-1c0.5-1.2,0.2-2.5-0.6-3.5
					c-2.7-3.4-7.8-3.3-10.6-0.4c-0.1,0.1-0.3,0.3-0.4,0.5c-1.1,1.5-1.1,3.5,0,5c0.9,1.2,2.3,2.3,3.7,2.6c0.4,0.1,0.8,0.1,1.1,0.1
					l0.2,0.7c0.2,0.6,0.6,1.2,1,1.7c1.3,1.6,3.4,2.3,5.5,2.4c2.1,0.1,4.2-0.7,6-1.6c1.3-0.6,2.5-1.2,4-1.2c1.6,0,2.9,0.5,4.4,0.9
					C-176,424.1-175.3,424.3-175.6,424z"/>
			</g>
			<g id="XMLID_26_">
				<path id="XMLID_27_" class="st0" d="M-204.4,406.9c0.7,0.8,1.9,1.2,2.8,1.5c1.1,0.4,2.3,0.3,3.4,0.2c2.2-0.2,4.3-0.7,6.5-0.3
					c1.8,0.3,3.3,1.2,4.3,2.8c0.8,1.2,1.4,2.9,3,3.2c0.5,0.1,0.9-0.1,1.1-0.6c0.1-0.4,0.1-1.1-0.3-1.3c-0.2-0.1-0.6-0.1-0.8,0
					c-0.2,0.1-0.1,0.3-0.4,0.1c-0.4-0.1-0.4-0.7-0.3-1c0.4-0.6,1.4-0.6,2.1-0.3c0.6,0.3,1.1,0.9,1.3,1.5c0.4,1,0.4,2.4-0.6,3
					c-1.3,0.7-3.2,0.1-4.4-0.6c-0.6-0.4-1.7-1.1-1.8-2c0-0.2-0.3,0-0.4,0.1c-0.3,0.2-0.5,0.6-0.7,1c-0.5,1.2-0.2,2.5,0.6,3.5
					c2.6,3.1,7.8,3.1,10.5,0.1c0.1-0.1,0.3-0.3,0.4-0.5c1.1-1.5,1.1-3.5,0-5c-0.9-1.2-2.3-2.3-3.7-2.6c-0.4-0.1-0.8-0.1-1.1-0.1
					l-0.2-0.7c-0.2-0.6-0.6-1.2-1-1.7c-1.3-1.6-3.4-2.3-5.5-2.4c-2.1-0.1-4.2,0.7-6,1.6c-1.3,0.6-2.5,1.2-4,1.2
					c-1.6,0-2.9-0.5-4.4-0.9C-204.1,406.8-204.7,406.6-204.4,406.9z"/>
			</g>
		</g>
		<g id="XMLID_4_">
			<path id="XMLID_19_" class="st0" d="M-210,436.7c0,0.4-0.2,0.6-0.8,0.6c-0.4,0-0.8-0.4-1.2-1.2c0-0.2-0.2-0.5-0.3-0.8l-2,1.8
				c-0.2,0.2-0.3,0.2-0.5,0.2c-0.1,0-0.1,0-0.1-0.2c0-0.3,0.1-0.6,0.4-0.9l1.8-1.6c-0.1-0.2-0.2-0.3-0.3-0.5c-0.3-0.4-0.6-0.6-1-0.6
				c-0.3,0-0.5,0-0.6,0c-0.2,0-0.3-0.1-0.3-0.3c0-0.4,0.3-0.6,1.1-0.6c0.5,0,0.9,0.3,1.4,1.1c0.1,0.1,0.2,0.3,0.3,0.5l1.5-1.3
				c0.1-0.1,0.3-0.2,0.5-0.2c0.1-0.2,0.1-0.1,0.1,0.1c0,0.3-0.1,0.6-0.4,0.8l-1.3,1.2c0.1,0.3,0.3,0.6,0.4,0.7
				c0.3,0.5,0.6,0.8,0.8,0.8C-210.1,436.4-210,436.5-210,436.7z"/>
			<path id="XMLID_18_" class="st0" d="M-203.9,436.8c0,0.1-0.1,0.2-0.2,0.4c-0.1,0.2-0.3,0.2-0.4,0.2c-0.1,0-0.3,0-0.4-0.2
				c-0.1-0.1-0.2-0.3-0.2-0.4c0-0.1,0-0.1-0.1-0.1c0,0,0,0-0.1,0c-0.3,0.2-0.5,0.4-0.8,0.5s-0.6,0.2-0.9,0.2s-0.6-0.1-0.9-0.2
				c-0.4-0.2-0.7-0.5-1-0.9c-0.2-0.4-0.3-0.8-0.3-1.2c0-0.6,0.2-1.2,0.7-1.7s1-0.7,1.6-0.7c0.2,0,0.5,0,0.9,0.1
				c0.4,0.1,0.7,0.1,0.9,0.1c0.1,0,0.2,0,0.3-0.1c0.1-0.1,0.2-0.1,0.3-0.1c0.2,0,0.3,0.1,0.3,0.3c0,0.1,0,0.2,0,0.4
				c-0.1,0.4-0.2,0.9-0.2,1.3v1.2c0,0.4,0,0.6,0.2,0.6c0.1,0,0.2,0,0.2,0.1C-204,436.6-203.9,436.7-203.9,436.8z M-205.2,434.5
				c0-0.4-0.2-0.8-0.6-1c-0.3-0.1-0.7-0.2-1.1-0.2c-0.4,0-0.8,0.2-1.1,0.5c-0.3,0.3-0.4,0.7-0.4,1.1s0.1,0.9,0.4,1.2
				c0.3,0.3,0.7,0.5,1.1,0.5c0.2,0,0.4,0,0.6-0.1C-205.5,436.1-205.2,435.5-205.2,434.5z"/>
			<path id="XMLID_17_" class="st0" d="M-198.1,436.8c0,0.1-0.1,0.2-0.2,0.4c-0.1,0.1-0.3,0.2-0.4,0.2c-0.2,0-0.3-0.1-0.5-0.2
				c-0.1-0.1-0.2-0.3-0.2-0.5v-1.4h-2.3v1.4c0,0.2,0,0.3-0.2,0.5c-0.1,0.1-0.3,0.2-0.5,0.2c-0.1,0-0.2,0-0.4-0.2
				c-0.2-0.2-0.2-0.2-0.2-0.4c0-0.1,0-0.2,0.1-0.3c0-0.1,0.1-0.1,0.2-0.1c0.1,0,0.2-0.2,0.2-0.5v-1.7c0-0.4,0-0.5-0.2-0.5
				c-0.1,0-0.2,0-0.2-0.1s-0.1-0.2-0.1-0.3c0-0.1,0.1-0.2,0.2-0.4c0.1-0.2,0.3-0.2,0.4-0.2c0.2,0,0.3,0.1,0.5,0.2
				c0.1,0.1,0.2,0.3,0.2,0.5v1.2h2.3v-1.2c0-0.2,0-0.3,0.2-0.5c0.1-0.1,0.3-0.2,0.5-0.2c0.1,0,0.2,0.1,0.4,0.2
				c0.1,0.1,0.2,0.3,0.2,0.4c0,0.1,0,0.2-0.1,0.3c0,0.1-0.1,0.1-0.2,0.1c-0.1,0-0.2,0.2-0.2,0.6v1.6c0,0.4,0,0.6,0.2,0.6
				c0.1,0,0.2,0,0.2,0.1C-198.2,436.6-198.1,436.7-198.1,436.8z"/>
			<path id="XMLID_11_" class="st0" d="M-194.9,434.8c0,0.2,0,0.3-0.1,0.3h-2.3c-0.1,0-0.1-0.1-0.1-0.3c0-0.2,0-0.3,0.1-0.3h2.3
				C-195,434.4-194.9,434.6-194.9,434.8z"/>
			<path id="XMLID_10_" class="st0" d="M-188.8,436.8c0,0.1-0.1,0.2-0.2,0.4c-0.1,0.2-0.3,0.2-0.4,0.2c-0.1,0-0.3,0-0.4-0.2
				c-0.1-0.1-0.2-0.3-0.2-0.4c0-0.1,0-0.1-0.1-0.1c0,0,0,0-0.1,0c-0.3,0.2-0.5,0.4-0.8,0.5c-0.3,0.1-0.6,0.2-0.9,0.2
				c-0.3,0-0.6-0.1-0.9-0.2c-0.4-0.2-0.7-0.5-1-0.9c-0.2-0.4-0.3-0.8-0.3-1.2c0-0.6,0.2-1.2,0.7-1.7s1-0.7,1.6-0.7
				c0.2,0,0.5,0,0.9,0.1c0.4,0.1,0.7,0.1,0.9,0.1c0.1,0,0.2,0,0.3-0.1c0.1-0.1,0.2-0.1,0.3-0.1c0.2,0,0.3,0.1,0.3,0.3
				c0,0.1,0,0.2,0,0.4c-0.1,0.4-0.2,0.9-0.2,1.3v1.2c0,0.4,0,0.6,0.2,0.6c0.1,0,0.2,0,0.2,0.1C-188.9,436.6-188.8,436.7-188.8,436.8
				z M-190.1,434.5c0-0.4-0.2-0.8-0.6-1c-0.3-0.1-0.7-0.2-1.1-0.2c-0.4,0-0.8,0.2-1.1,0.5c-0.3,0.3-0.4,0.7-0.4,1.1s0.1,0.9,0.4,1.2
				c0.3,0.3,0.7,0.5,1.1,0.5c0.2,0,0.4,0,0.6-0.1C-190.4,436.1-190.1,435.5-190.1,434.5z"/>
			<path id="XMLID_9_" class="st0" d="M-183.2,436.9c0,0.3-0.1,0.5-0.3,0.5c-0.2,0-0.4-0.2-0.6-0.6l-1.3-2.4c0-0.1-0.1-0.1-0.1-0.1
				s-0.1,0.1-0.2,0.3c0,0.1-0.1,0.2-0.1,0.3c-0.4,0.8-0.8,1.4-1.1,1.8c-0.1,0.2-0.3,0.3-0.5,0.5c-0.2,0.2-0.4,0.3-0.6,0.3
				c-0.1,0-0.2,0-0.3-0.1c-0.1-0.1-0.1-0.2-0.1-0.4c0-0.1,0-0.2,0.1-0.3c0.1-0.1,0.2-0.1,0.3-0.1c0,0,0,0,0.1,0h0.1h0.1
				c0.2-0.1,0.5-0.5,0.9-1.3c0.4-0.8,0.6-1.2,0.6-1.5v-0.1c0-0.1,0-0.1,0-0.1c0-0.2,0-0.3,0.1-0.5c0.1-0.1,0.2-0.2,0.4-0.2
				c0.2,0,0.3,0.1,0.4,0.3l1.9,3.4C-183.3,436.5-183.2,436.7-183.2,436.9z"/>
			<path id="XMLID_8_" class="st0" d="M-176.1,432.9c0,0.2-0.1,0.4-0.4,0.4c-0.1,0-0.3,0-0.7,0h-1.9c0,0-0.1,0-0.1,0.1v0.1v2.2
				c0,0.4,0,0.6,0.2,0.6c0.1,0,0.2,0,0.2,0.1c0,0.1,0.1,0.2,0.1,0.3c0,0.1-0.1,0.2-0.2,0.4s-0.3,0.2-0.4,0.2c-0.2,0-0.3-0.1-0.5-0.2
				c-0.2-0.1-0.2-0.3-0.2-0.4v-3.1c0-0.1,0-0.2-0.2-0.2h-1.5c-0.1,0-0.3,0-0.4,0.2c-0.1,0.2-0.3,0.2-0.4,0.2c-0.2,0-0.3-0.1-0.3-0.5
				c0-0.4,0.4-0.6,1.2-0.6h4.5c0.1,0,0.2,0,0.3,0c0.1,0,0.2,0,0.3,0C-176.2,432.6-176.1,432.7-176.1,432.9z"/>
			<path id="XMLID_7_" class="st0" d="M-170.6,436.8c0,0.1-0.1,0.2-0.2,0.4c-0.1,0.1-0.3,0.2-0.4,0.2c-0.1,0-0.3,0-0.4-0.2
				c-0.1-0.1-0.2-0.3-0.2-0.4c0-0.1,0-0.1-0.1-0.1c0,0,0,0-0.1,0c-0.3,0.2-0.5,0.4-0.8,0.5s-0.6,0.2-0.9,0.2c-0.3,0-0.6-0.1-0.9-0.2
				c-0.4-0.2-0.7-0.5-1-0.9c-0.2-0.4-0.3-0.8-0.3-1.2c0-0.6,0.2-1.2,0.7-1.7c0.4-0.5,1-0.7,1.6-0.7c0.2,0,0.5,0,0.9,0.1
				c0.4,0.1,0.7,0.1,0.9,0.1c0.1,0,0.2,0,0.3-0.1c0.1-0.1,0.2-0.1,0.3-0.1c0.2,0,0.3,0.1,0.3,0.3c0,0.1,0,0.2,0,0.4
				c-0.1,0.4-0.2,0.9-0.2,1.3v1.2c0,0.4,0,0.6,0.2,0.6c0.1,0,0.2,0,0.2,0.1C-170.6,436.6-170.6,436.7-170.6,436.8z M-171.9,434.5
				c0-0.4-0.2-0.8-0.6-1c-0.3-0.1-0.7-0.2-1.1-0.2s-0.8,0.2-1.1,0.5c-0.3,0.3-0.4,0.7-0.4,1.1s0.1,0.9,0.4,1.2
				c0.3,0.3,0.7,0.5,1.1,0.5c0.2,0,0.4,0,0.6-0.1C-172.2,436.1-171.9,435.5-171.9,434.5z"/>
			<path id="XMLID_5_" class="st0" d="M-164.3,436.8c0,0.1-0.1,0.2-0.2,0.4c-0.1,0.1-0.3,0.2-0.4,0.2c-0.2,0-0.3-0.1-0.5-0.2
				c-0.1-0.1-0.2-0.3-0.2-0.5v-2.5c0-0.1,0-0.1-0.1-0.1c0,0,0,0-0.1,0l-2.7,3c-0.1,0.2-0.3,0.2-0.4,0.2c0,0-0.1,0-0.1-0.1
				c0,0-0.1-0.1-0.1-0.2v-3c0-0.4,0-0.5-0.2-0.5c-0.1,0-0.2,0-0.2-0.1c0-0.1-0.1-0.2-0.1-0.3s0.1-0.2,0.2-0.4
				c0.1-0.1,0.3-0.2,0.4-0.2c0.2,0,0.3,0.1,0.5,0.2c0.1,0.1,0.2,0.3,0.2,0.5v2.5c0,0.1,0,0.1,0.1,0.1c0,0,0,0,0.1,0l2.7-3
				c0.1-0.2,0.3-0.2,0.4-0.2c0,0,0.1,0,0.1,0.1c0,0,0.1,0.1,0.1,0.2v3c0,0.4,0,0.5,0.2,0.5c0.1,0,0.2,0,0.2,0.1
				C-164.4,436.6-164.3,436.7-164.3,436.8z M-165.5,430.1c0,0.4-0.1,0.7-0.5,1c-0.3,0.2-0.7,0.4-1.1,0.4s-0.7-0.1-0.9-0.3
				c-0.2-0.2-0.4-0.5-0.4-0.9c0-0.3,0.1-0.4,0.2-0.4c0.1,0,0.2,0.1,0.2,0.4c0,0.2,0.1,0.4,0.3,0.5c0.2,0.1,0.4,0.1,0.6,0.1
				c0.6,0,1-0.2,1.1-0.7c0-0.2,0.1-0.3,0.3-0.3C-165.5,429.8-165.5,429.9-165.5,430.1L-165.5,430.1z"/>
		</g>
	</g>
	<g>
		<path class="st0" d="M-136.1,413.8l3.1-4.3h0.5v5.2h-0.7v-4.1l-3,4.2h-0.6v-5.2h0.7V413.8z"/>
		<path class="st0" d="M-130.2,411.8h2.9v-2.2h0.7v5.2h-0.7v-2.4h-2.9v2.4h-0.7v-5.2h0.7V411.8z"/>
		<path class="st0" d="M-122.1,409.5c0.4,0,0.8,0.1,1.1,0.3c0.3,0.1,0.6,0.3,0.8,0.6c0.2,0.2,0.4,0.5,0.5,0.8c0.1,0.3,0.2,0.7,0.2,1
			c0,0.4-0.1,0.7-0.2,1c-0.1,0.3-0.3,0.6-0.5,0.8s-0.5,0.4-0.8,0.6s-0.7,0.2-1.1,0.3v2h-0.7v-2c-0.4,0-0.8-0.1-1.1-0.3
			c-0.3-0.1-0.6-0.3-0.8-0.6c-0.2-0.2-0.4-0.5-0.5-0.8c-0.1-0.3-0.2-0.7-0.2-1c0-0.4,0.1-0.7,0.2-1c0.1-0.3,0.3-0.6,0.5-0.8
			c0.2-0.2,0.5-0.4,0.8-0.6c0.3-0.1,0.7-0.2,1.1-0.3v-2h0.7V409.5z M-122.8,410.1c-0.6,0.1-1.1,0.3-1.5,0.6
			c-0.3,0.3-0.5,0.8-0.5,1.4s0.2,1.1,0.5,1.5s0.8,0.6,1.4,0.6L-122.8,410.1L-122.8,410.1z M-122.1,414.2c0.6-0.1,1.1-0.3,1.4-0.6
			c0.3-0.4,0.5-0.8,0.5-1.4c0-0.6-0.2-1.1-0.5-1.4c-0.3-0.4-0.8-0.6-1.4-0.6V414.2z"/>
		<path class="st0" d="M-116.1,414.9c-0.4,0-0.7-0.1-1-0.2c-0.3-0.1-0.6-0.3-0.8-0.6c-0.2-0.2-0.4-0.5-0.5-0.9
			c-0.1-0.3-0.2-0.7-0.2-1c0-0.4,0.1-0.7,0.2-1c0.1-0.3,0.3-0.6,0.5-0.9c0.2-0.2,0.5-0.4,0.8-0.6c0.3-0.1,0.7-0.2,1-0.2
			c0.4,0,0.7,0.1,1,0.2c0.3,0.1,0.6,0.3,0.8,0.6c0.2,0.2,0.4,0.5,0.5,0.9c0.1,0.3,0.2,0.7,0.2,1c0,0.4-0.1,0.7-0.2,1
			c-0.1,0.3-0.3,0.6-0.5,0.9c-0.2,0.2-0.5,0.4-0.8,0.6C-115.4,414.8-115.7,414.9-116.1,414.9z M-118,412.2c0,0.3,0,0.6,0.1,0.8
			s0.2,0.5,0.4,0.7c0.2,0.2,0.4,0.3,0.6,0.4s0.5,0.2,0.7,0.2c0.3,0,0.5-0.1,0.7-0.2s0.4-0.3,0.6-0.5c0.2-0.2,0.3-0.4,0.4-0.7
			c0.1-0.3,0.1-0.5,0.1-0.8c0-0.3-0.1-0.6-0.1-0.8c-0.1-0.3-0.2-0.5-0.4-0.7c-0.2-0.2-0.4-0.3-0.6-0.5c-0.2-0.1-0.5-0.2-0.7-0.2
			c-0.3,0-0.5,0.1-0.7,0.2s-0.4,0.3-0.6,0.5c-0.2,0.2-0.3,0.4-0.4,0.7C-117.9,411.6-118,411.9-118,412.2z"/>
		<path class="st0" d="M-109.7,414.9c-0.4,0-0.8-0.1-1.2-0.3c-0.3-0.2-0.6-0.5-0.8-0.8v3.1h-0.7v-7.3h0.6v1c0.2-0.3,0.5-0.6,0.8-0.8
			c0.3-0.2,0.7-0.3,1.1-0.3s0.7,0.1,1,0.2c0.3,0.2,0.6,0.4,0.8,0.6c0.2,0.3,0.4,0.5,0.5,0.9c0.1,0.3,0.2,0.7,0.2,1
			c0,0.4-0.1,0.7-0.2,1c-0.1,0.3-0.3,0.6-0.5,0.9c-0.2,0.2-0.5,0.4-0.8,0.6C-109,414.8-109.3,414.9-109.7,414.9z M-109.9,414.3
			c0.3,0,0.5-0.1,0.8-0.2c0.2-0.1,0.4-0.3,0.6-0.5c0.2-0.2,0.3-0.4,0.4-0.7c0.1-0.3,0.1-0.5,0.1-0.8c0-0.3,0-0.5-0.1-0.8
			c-0.1-0.3-0.2-0.5-0.4-0.7c-0.2-0.2-0.4-0.3-0.6-0.5c-0.2-0.1-0.5-0.2-0.8-0.2c-0.2,0-0.4,0-0.5,0.1c-0.2,0.1-0.4,0.2-0.5,0.3
			c-0.2,0.1-0.3,0.3-0.4,0.4c-0.1,0.1-0.2,0.3-0.2,0.5v1.6c0.1,0.2,0.2,0.4,0.3,0.5c0.1,0.2,0.3,0.3,0.4,0.4
			c0.1,0.1,0.3,0.2,0.5,0.3C-110.3,414.2-110.1,414.3-109.9,414.3z"/>
		<path class="st0" d="M-103.5,413.1l1.9-3.5h0.7v5.2h-0.7v-4l-1.8,3.1h-0.4l-1.8-3.1v4h-0.7v-5.2h0.7L-103.5,413.1z"/>
		<path class="st0" d="M-98.1,414.9c-0.2,0-0.5,0-0.7-0.1c-0.2-0.1-0.4-0.2-0.5-0.3c-0.2-0.1-0.3-0.3-0.4-0.5s-0.1-0.4-0.1-0.6
			c0-0.2,0.1-0.4,0.2-0.6c0.1-0.2,0.3-0.4,0.4-0.5c0.1-0.1,0.4-0.2,0.7-0.3s0.6-0.1,0.9-0.1s0.5,0,0.8,0.1c0.3,0,0.5,0.1,0.7,0.2
			v-0.7c0-0.5-0.1-0.8-0.4-1.1c-0.3-0.3-0.6-0.4-1.1-0.4c-0.3,0-0.5,0.1-0.8,0.2c-0.3,0.1-0.6,0.3-0.8,0.5l-0.2-0.5
			c0.7-0.5,1.3-0.7,2-0.7s1.2,0.2,1.5,0.5s0.6,0.9,0.6,1.5v2.4c0,0.2,0.1,0.3,0.3,0.3v0.6c-0.1,0-0.2,0-0.3,0c-0.2,0-0.3,0-0.4-0.1
			c-0.1-0.1-0.1-0.2-0.2-0.4v-0.4c-0.2,0.3-0.5,0.6-0.9,0.7S-97.7,414.9-98.1,414.9z M-97.9,414.4c0.4,0,0.7-0.1,1-0.2
			c0.3-0.1,0.5-0.3,0.7-0.5c0.1-0.1,0.1-0.1,0.1-0.2s0-0.1,0-0.2v-0.9c-0.2-0.1-0.5-0.2-0.7-0.2s-0.5-0.1-0.7-0.1
			c-0.5,0-0.9,0.1-1.2,0.3c-0.3,0.2-0.5,0.5-0.5,0.8c0,0.2,0,0.3,0.1,0.4s0.1,0.3,0.3,0.4s0.2,0.2,0.4,0.2
			C-98.3,414.3-98.1,414.4-97.9,414.4z"/>
		<path class="st0" d="M-93.9,409.6h0.7v4.6h2.5v-4.6h0.7v4.6h0.9v2.2h-0.6v-1.6h-4.2V409.6z"/>
		<path class="st0" d="M-87.6,413.8l3.1-4.3h0.5v5.2h-0.7v-4.1l-3,4.2h-0.6v-5.2h0.7L-87.6,413.8L-87.6,413.8z"/>
		<path class="st0" d="M-80.2,414.9c-0.4,0-0.7-0.1-1-0.2c-0.3-0.1-0.6-0.3-0.8-0.6c-0.2-0.2-0.4-0.5-0.5-0.9
			c-0.1-0.3-0.2-0.7-0.2-1c0-0.4,0.1-0.7,0.2-1c0.1-0.3,0.3-0.6,0.5-0.9c0.2-0.2,0.5-0.4,0.8-0.6c0.3-0.1,0.7-0.2,1-0.2
			c0.4,0,0.7,0.1,1,0.2c0.3,0.1,0.6,0.3,0.8,0.6c0.2,0.2,0.4,0.5,0.5,0.9c0.1,0.3,0.2,0.7,0.2,1c0,0.4-0.1,0.7-0.2,1
			c-0.1,0.3-0.3,0.6-0.5,0.9c-0.2,0.2-0.5,0.4-0.8,0.6C-79.5,414.8-79.8,414.9-80.2,414.9z M-82.1,412.2c0,0.3,0,0.6,0.1,0.8
			s0.2,0.5,0.4,0.7c0.2,0.2,0.4,0.3,0.6,0.4c0.2,0.1,0.5,0.2,0.7,0.2c0.3,0,0.5-0.1,0.7-0.2s0.4-0.3,0.6-0.5
			c0.2-0.2,0.3-0.4,0.4-0.7c0.1-0.3,0.1-0.5,0.1-0.8c0-0.3-0.1-0.6-0.1-0.8c-0.1-0.3-0.2-0.5-0.4-0.7c-0.2-0.2-0.4-0.3-0.6-0.5
			c-0.2-0.1-0.5-0.2-0.7-0.2c-0.3,0-0.5,0.1-0.7,0.2s-0.4,0.3-0.6,0.5c-0.2,0.2-0.3,0.4-0.4,0.7C-82,411.6-82.1,411.9-82.1,412.2z"
			/>
		<path class="st0" d="M-75.8,411.8h2.9v-2.2h0.7v5.2h-0.7v-2.4h-2.9v2.4h-0.7v-5.2h0.7V411.8z"/>
		<path class="st0" d="M-70,411.8h2.9v-2.2h0.7v5.2h-0.7v-2.4H-70v2.4h-0.7v-5.2h0.7V411.8z"/>
		<path class="st0" d="M-64.9,409.6h0.7v1.9h1.1c0.2,0,0.5,0,0.7,0.1s0.4,0.2,0.6,0.3c0.2,0.1,0.3,0.3,0.4,0.5
			c0.1,0.2,0.1,0.5,0.1,0.7c0,0.3,0,0.5-0.1,0.7c-0.1,0.2-0.2,0.4-0.4,0.5c-0.2,0.1-0.3,0.2-0.6,0.3c-0.2,0.1-0.4,0.1-0.7,0.1h-1.8
			V409.6z M-63.1,414.2c0.3,0,0.6-0.1,0.8-0.3c0.2-0.2,0.3-0.5,0.3-0.8c0-0.3-0.1-0.6-0.3-0.8c-0.2-0.2-0.5-0.3-0.8-0.3h-1.1v2.2
			C-64.2,414.2-63.1,414.2-63.1,414.2z M-60.7,409.6h0.7v5.2h-0.7V409.6z"/>
		<path class="st0" d="M-57.8,413.8l3.1-4.3h0.5v5.2h-0.7v-4.1l-3,4.2h-0.6v-5.2h0.7V413.8z M-54.9,407.6c0,0.3-0.1,0.6-0.4,0.7
			c-0.2,0.2-0.6,0.2-1,0.2s-0.8-0.1-1-0.2c-0.2-0.2-0.4-0.4-0.4-0.7h0.4c0,0.2,0.1,0.4,0.3,0.5s0.4,0.1,0.7,0.1s0.5,0,0.7-0.1
			s0.2-0.2,0.3-0.5C-55.3,407.6-54.9,407.6-54.9,407.6z"/>
		<path class="st0" d="M-134.8,424.8h-0.7v-4.6h-1.8v-0.6h4.3v0.6h-1.8V424.8z"/>
		<path class="st0" d="M-132,426.2c0.1,0.1,0.2,0.2,0.3,0.2c0.1,0,0.2,0.1,0.3,0.1c0.1,0,0.2,0,0.3-0.1c0.1,0,0.2-0.1,0.3-0.3
			c0.1-0.1,0.2-0.3,0.3-0.5c0.1-0.2,0.2-0.5,0.3-0.8l-2.3-5.2h0.7l1.9,4.6l1.8-4.6h0.7l-2.6,6c-0.1,0.3-0.2,0.5-0.3,0.6
			s-0.2,0.3-0.3,0.4s-0.2,0.2-0.4,0.2c-0.2,0-0.3,0.1-0.4,0.1c-0.3,0-0.5-0.1-0.7-0.2L-132,426.2z"/>
		<path class="st0" d="M-123.9,424.9c-0.4,0-0.8-0.1-1.2-0.3c-0.3-0.2-0.6-0.5-0.8-0.8v3.1h-0.7v-7.3h0.6v1c0.2-0.3,0.5-0.6,0.8-0.8
			c0.3-0.2,0.7-0.3,1.1-0.3s0.7,0.1,1,0.2c0.3,0.2,0.6,0.4,0.8,0.6c0.2,0.3,0.4,0.5,0.5,0.9c0.1,0.3,0.2,0.7,0.2,1
			c0,0.4-0.1,0.7-0.2,1c-0.1,0.3-0.3,0.6-0.5,0.9c-0.2,0.2-0.5,0.4-0.8,0.6C-123.2,424.8-123.6,424.9-123.9,424.9z M-124.1,424.3
			c0.3,0,0.5-0.1,0.8-0.2c0.2-0.1,0.4-0.3,0.6-0.5c0.2-0.2,0.3-0.4,0.4-0.7c0.1-0.3,0.1-0.5,0.1-0.8c0-0.3,0-0.5-0.1-0.8
			c-0.1-0.3-0.2-0.5-0.4-0.7c-0.2-0.2-0.4-0.3-0.6-0.5c-0.2-0.1-0.5-0.2-0.8-0.2c-0.2,0-0.4,0-0.5,0.1c-0.2,0.1-0.4,0.2-0.5,0.3
			c-0.2,0.1-0.3,0.3-0.4,0.4c-0.1,0.1-0.2,0.3-0.2,0.5v1.6c0.1,0.2,0.2,0.4,0.3,0.5c0.1,0.2,0.3,0.3,0.4,0.4
			c0.1,0.1,0.3,0.2,0.5,0.3C-124.5,424.2-124.3,424.3-124.1,424.3z"/>
		<path class="st0" d="M-119.7,423.8l3.1-4.3h0.5v5.2h-0.7v-4.2l-3,4.2h-0.6v-5.2h0.7V423.8z"/>
		<path class="st0" d="M-114.9,422.2c0-0.4,0.1-0.7,0.2-1c0.1-0.3,0.3-0.6,0.5-0.9c0.2-0.2,0.5-0.4,0.8-0.6c0.3-0.1,0.7-0.2,1.1-0.2
			c0.5,0,0.9,0.1,1.3,0.3c0.4,0.2,0.6,0.5,0.8,0.9l-0.7,0.2c-0.1-0.3-0.4-0.5-0.6-0.6c-0.3-0.1-0.6-0.2-0.9-0.2s-0.5,0.1-0.7,0.2
			c-0.2,0.1-0.4,0.3-0.6,0.4c-0.2,0.2-0.3,0.4-0.4,0.7c-0.1,0.3-0.1,0.5-0.1,0.8c0,0.3,0,0.6,0.1,0.8c0.1,0.3,0.2,0.5,0.4,0.7
			c0.2,0.2,0.4,0.3,0.6,0.5c0.2,0.2,0.5,0.2,0.7,0.2s0.3,0,0.5-0.1c0.2,0,0.3-0.1,0.5-0.2c0.1-0.1,0.3-0.2,0.4-0.3
			c0.1-0.1,0.2-0.2,0.2-0.3l0.7,0.2c-0.1,0.2-0.2,0.4-0.3,0.5s-0.3,0.3-0.5,0.4s-0.4,0.2-0.6,0.3c-0.2,0.1-0.5,0.1-0.7,0.1
			c-0.4,0-0.7-0.1-1-0.2c-0.3-0.1-0.6-0.3-0.8-0.6c-0.2-0.3-0.4-0.5-0.5-0.9C-114.6,422.9-114.9,422.5-114.9,422.2z"/>
		<path class="st0" d="M-107.1,424.8h-0.7v-4.6h-1.8v-0.6h4.3v0.6h-1.8V424.8z"/>
		<path class="st0" d="M-103.6,423.8l3.1-4.3h0.5v5.2h-0.7v-4.2l-3,4.2h-0.6v-5.2h0.7V423.8z"/>
		<path class="st0" d="M-95.1,424.8h-0.7v-2.2c-0.2,0.1-0.4,0.1-0.5,0.1c-0.2,0-0.4,0-0.7,0c-0.3,0-0.6,0-0.8-0.1
			c-0.2-0.1-0.4-0.2-0.5-0.4c-0.1-0.2-0.2-0.4-0.3-0.6c-0.1-0.2-0.1-0.5-0.1-0.7v-1.4h0.7v1.4c0,0.5,0.1,0.8,0.3,1
			c0.2,0.2,0.5,0.3,0.8,0.3s0.5,0,0.7-0.1s0.3-0.1,0.4-0.2v-2.4h0.7V424.8z"/>
		<path class="st0" d="M-91.4,424.9c-0.4,0-0.7-0.1-1-0.2c-0.3-0.1-0.6-0.3-0.8-0.6c-0.2-0.3-0.4-0.5-0.5-0.9
			c-0.1-0.4-0.2-0.7-0.2-1.1s0.1-0.7,0.2-1c0.1-0.3,0.3-0.6,0.5-0.9c0.2-0.3,0.5-0.4,0.8-0.6c0.3-0.1,0.7-0.2,1-0.2
			c0.4,0,0.7,0.1,1,0.2s0.6,0.3,0.8,0.6c0.2,0.2,0.4,0.5,0.5,0.9c0.1,0.3,0.2,0.7,0.2,1c0,0.1,0,0.1,0,0.2c0,0.1,0,0.1,0,0.1h-4.5
			c0,0.3,0.1,0.5,0.2,0.8c0.1,0.3,0.3,0.4,0.4,0.6c0.2,0.2,0.4,0.3,0.6,0.4c0.2,0.1,0.5,0.1,0.7,0.1s0.3,0,0.5-0.1
			c0.2,0,0.3-0.1,0.5-0.2c0.1-0.1,0.3-0.2,0.4-0.3c0.1-0.1,0.2-0.2,0.3-0.4l0.6,0.2c-0.1,0.2-0.2,0.4-0.3,0.5s-0.3,0.3-0.5,0.4
			s-0.4,0.2-0.6,0.3C-90.9,424.8-91.1,424.9-91.4,424.9z M-89.5,421.9c0-0.3-0.1-0.5-0.2-0.8s-0.3-0.4-0.4-0.6
			c-0.2-0.2-0.4-0.3-0.6-0.4s-0.5-0.1-0.7-0.1s-0.5,0-0.7,0.1s-0.4,0.2-0.6,0.4c-0.2,0.2-0.3,0.4-0.4,0.6s-0.2,0.5-0.2,0.8H-89.5z"
			/>
		<path class="st0" d="M-88.1,422.2c0-0.4,0.1-0.7,0.2-1c0.1-0.3,0.3-0.6,0.5-0.9c0.2-0.2,0.5-0.4,0.8-0.6c0.3-0.1,0.7-0.2,1.1-0.2
			c0.5,0,0.9,0.1,1.3,0.3c0.4,0.2,0.6,0.5,0.8,0.9l-0.7,0.2c-0.1-0.3-0.4-0.5-0.6-0.6c-0.3-0.1-0.6-0.2-0.9-0.2
			c-0.3,0-0.5,0.1-0.7,0.2c-0.2,0.1-0.4,0.3-0.6,0.4c-0.2,0.2-0.3,0.4-0.4,0.7c-0.1,0.3-0.1,0.5-0.1,0.8c0,0.3,0,0.6,0.1,0.8
			c0.1,0.3,0.2,0.5,0.4,0.7c0.2,0.2,0.4,0.3,0.6,0.5c0.2,0.2,0.5,0.2,0.7,0.2s0.3,0,0.5-0.1c0.2,0,0.3-0.1,0.5-0.2
			c0.1-0.1,0.3-0.2,0.4-0.3c0.1-0.1,0.2-0.2,0.2-0.3l0.7,0.2c-0.1,0.2-0.2,0.4-0.3,0.5s-0.3,0.3-0.5,0.4s-0.4,0.2-0.6,0.3
			c-0.2,0.1-0.5,0.1-0.7,0.1c-0.4,0-0.7-0.1-1-0.2c-0.3-0.1-0.6-0.3-0.8-0.6c-0.2-0.3-0.4-0.5-0.5-0.9
			C-88.1,422.9-88.1,422.5-88.1,422.2z"/>
		<path class="st0" d="M-79.2,419.6h0.8l-2,2.5l2.1,2.7H-79l-1.8-2.4h-0.7v2.4h-0.7v-5.2h0.7v2.3h0.7L-79.2,419.6z"/>
		<path class="st0" d="M-76.8,423.8l3.1-4.3h0.5v5.2h-0.7v-4.2l-3,4.2h-0.6v-5.2h0.7V423.8z"/>
		<path class="st0" d="M-70.9,423.8l3.1-4.3h0.5v5.2H-68v-4.2l-3,4.2h-0.6v-5.2h0.7V423.8z M-67.9,417.6c0,0.3-0.1,0.6-0.4,0.7
			c-0.2,0.2-0.6,0.2-1,0.2s-0.8-0.1-1-0.2c-0.2-0.2-0.4-0.4-0.4-0.7h0.4c0,0.2,0.1,0.4,0.3,0.5s0.4,0.1,0.7,0.1s0.5,0,0.7-0.1
			s0.2-0.2,0.3-0.5H-67.9z"/>
		<path class="st0" d="M-132.6,434.8h-0.7v-4.6h-2.8v4.6h-0.7v-5.2h4.1L-132.6,434.8L-132.6,434.8z"/>
		<path class="st0" d="M-128.9,434.9c-0.4,0-0.7-0.1-1-0.2c-0.3-0.1-0.6-0.3-0.8-0.6c-0.2-0.2-0.4-0.5-0.5-0.9
			c-0.1-0.3-0.2-0.7-0.2-1c0-0.4,0.1-0.7,0.2-1c0.1-0.3,0.3-0.6,0.5-0.9c0.2-0.2,0.5-0.4,0.8-0.6c0.3-0.1,0.7-0.2,1-0.2
			c0.4,0,0.7,0.1,1,0.2c0.3,0.1,0.6,0.3,0.8,0.6c0.2,0.2,0.4,0.5,0.5,0.9c0.1,0.3,0.2,0.7,0.2,1c0,0.4-0.1,0.7-0.2,1
			c-0.1,0.3-0.3,0.6-0.5,0.9c-0.2,0.2-0.5,0.4-0.8,0.6C-128.2,434.8-128.5,434.9-128.9,434.9z M-130.8,432.2c0,0.3,0,0.6,0.1,0.8
			c0.1,0.2,0.2,0.5,0.4,0.7c0.2,0.2,0.4,0.3,0.6,0.4s0.5,0.2,0.7,0.2c0.3,0,0.5-0.1,0.7-0.2s0.4-0.3,0.6-0.5
			c0.2-0.2,0.3-0.4,0.4-0.7c0.1-0.3,0.1-0.5,0.1-0.8c0-0.3-0.1-0.6-0.1-0.8c-0.1-0.3-0.2-0.5-0.4-0.7c-0.2-0.2-0.4-0.3-0.6-0.5
			c-0.2-0.1-0.5-0.2-0.7-0.2c-0.3,0-0.5,0.1-0.7,0.2s-0.4,0.3-0.6,0.5c-0.2,0.2-0.3,0.4-0.4,0.7
			C-130.7,431.6-130.8,431.9-130.8,432.2z"/>
		<path class="st0" d="M-122.5,434.9c-0.4,0-0.8-0.1-1.2-0.3c-0.3-0.2-0.6-0.5-0.8-0.8v3.1h-0.7v-7.3h0.6v1c0.2-0.3,0.5-0.6,0.8-0.8
			c0.3-0.2,0.7-0.3,1.1-0.3s0.7,0.1,1,0.2c0.3,0.2,0.6,0.4,0.8,0.6c0.2,0.3,0.4,0.5,0.5,0.9c0.1,0.3,0.2,0.7,0.2,1
			c0,0.4-0.1,0.7-0.2,1c-0.1,0.3-0.3,0.6-0.5,0.9c-0.2,0.2-0.5,0.4-0.8,0.6C-121.8,434.8-122.1,434.9-122.5,434.9z M-122.7,434.3
			c0.3,0,0.5-0.1,0.8-0.2c0.2-0.1,0.4-0.3,0.6-0.5c0.2-0.2,0.3-0.4,0.4-0.7c0.1-0.3,0.1-0.5,0.1-0.8c0-0.3,0-0.5-0.1-0.8
			c-0.1-0.3-0.2-0.5-0.4-0.7c-0.2-0.2-0.4-0.3-0.6-0.5c-0.2-0.1-0.5-0.2-0.8-0.2c-0.2,0-0.4,0-0.5,0.1c-0.2,0.1-0.4,0.2-0.5,0.3
			c-0.2,0.1-0.3,0.3-0.4,0.4c-0.1,0.1-0.2,0.3-0.2,0.5v1.6c0.1,0.2,0.2,0.4,0.3,0.5c0.1,0.2,0.3,0.3,0.4,0.4
			c0.1,0.1,0.3,0.2,0.5,0.3C-123.1,434.2-122.9,434.3-122.7,434.3z"/>
		<path class="st0" d="M-117,434.8h-0.7v-4.6h-1.8v-0.6h4.3v0.6h-1.8V434.8z"/>
		<path class="st0" d="M-112.9,434.9c-0.2,0-0.5,0-0.7-0.1c-0.2-0.1-0.4-0.2-0.5-0.3c-0.2-0.1-0.3-0.3-0.4-0.5s-0.1-0.4-0.1-0.6
			c0-0.2,0.1-0.4,0.2-0.6c0.1-0.2,0.3-0.4,0.4-0.5c0.1-0.1,0.4-0.2,0.7-0.3s0.6-0.1,0.9-0.1s0.5,0,0.8,0.1c0.3,0,0.5,0.1,0.7,0.2
			v-0.5c0-0.5-0.1-0.8-0.4-1.1s-0.6-0.4-1.1-0.4c-0.3,0-0.5,0.1-0.8,0.2c-0.3,0.1-0.6,0.3-0.8,0.5l-0.2-0.5c0.7-0.5,1.3-0.7,2-0.7
			s1.2,0.2,1.5,0.5c0.3,0.3,0.6,0.9,0.6,1.5v2.2c0,0.2,0.1,0.3,0.3,0.3v0.6c-0.1,0-0.2,0-0.3,0c-0.2,0-0.3,0-0.4-0.1
			c-0.1-0.1-0.1-0.2-0.2-0.4v-0.4c-0.2,0.3-0.5,0.6-0.9,0.7S-112.5,434.9-112.9,434.9z M-112.8,434.4c0.4,0,0.7-0.1,1-0.2
			c0.3-0.1,0.5-0.3,0.7-0.5c0.1-0.1,0.1-0.1,0.1-0.2s0-0.1,0-0.2v-0.9c-0.2-0.1-0.5-0.2-0.7-0.2s-0.5-0.1-0.7-0.1
			c-0.5,0-0.9,0.1-1.2,0.3c-0.3,0.2-0.5,0.5-0.5,0.8c0,0.2,0,0.3,0.1,0.4s0.1,0.3,0.3,0.4s0.2,0.2,0.4,0.2
			C-113.1,434.3-112.9,434.4-112.8,434.4z"/>
		<path class="st0" d="M-109.5,434.2c0.2,0,0.4-0.1,0.5-0.2s0.3-0.3,0.4-0.5s0.2-0.6,0.3-1s0.2-1,0.2-1.6l0.1-1.4h3.1v5.2h-0.7V430
			h-1.8l-0.1,1.2c-0.1,0.7-0.2,1.3-0.3,1.7c-0.1,0.4-0.2,0.8-0.4,1.1c-0.1,0.3-0.3,0.5-0.5,0.6s-0.4,0.2-0.7,0.2L-109.5,434.2z"/>
	</g>
	<g>
		<rect x="-151.1" y="405.5" class="st0" width="0.5" height="32.4"/>
	</g>
</g>
</svg>
