<?xml version="1.0" encoding="utf-8"?>
<!-- Generator: Adobe Illustrator 19.0.0, SVG Export Plug-In . SVG Version: 6.00 Build 0)  -->
<svg version="1.1" id="Слой_1" xmlns="http://www.w3.org/2000/svg" xmlns:xlink="http://www.w3.org/1999/xlink" x="0px" y="0px"
	 viewBox="0 0 123.1 25.5" style="enable-background:new 0 0 123.1 25.5;" xml:space="preserve">
<style type="text/css">
	.st0{fill:#FFFFFF;}
</style>
<g id="XMLID_2_">
	<g id="XMLID_61_">
		<polygon id="XMLID_62_" class="st0" points="30,0.2 31.5,3.2 34.8,3.7 32.4,6 32.9,9.3 30,7.7 27,9.3 27.6,6 25.2,3.7 28.5,3.2 		
			"/>
	</g>
	<g id="XMLID_59_">
		<polygon id="XMLID_60_" class="st0" points="42.6,0.2 44.1,3.2 47.4,3.7 45,6 45.5,9.3 42.6,7.7 39.6,9.3 40.2,6 37.8,3.7 
			41.1,3.2 		"/>
	</g>
	<g id="XMLID_57_">
		<polygon id="XMLID_58_" class="st0" points="55.2,0.2 56.7,3.2 60,3.7 57.6,6 58.2,9.3 55.2,7.7 52.2,9.3 52.8,6 50.4,3.7 
			53.7,3.2 		"/>
	</g>
	<g id="XMLID_53_">
		<path id="XMLID_54_" class="st0" d="M70.8,9.5C70.7,9.5,70.7,9.5,70.8,9.5l-3-1.5l-2.9,1.5c-0.1,0-0.1,0-0.2,0
			c-0.1,0-0.1-0.1-0.1-0.2l0.5-3.2l-2.3-2.3c-0.1-0.1-0.1-0.1-0.1-0.2c0-0.1,0.1-0.1,0.2-0.1L66.1,3l1.4-2.9c0.1-0.1,0.3-0.1,0.4,0
			L69.3,3l3.2,0.5c0.1,0,0.1,0.1,0.2,0.1s0,0.2-0.1,0.2l-2.3,2.3l0.5,3.2C70.8,9.4,70.8,9.5,70.8,9.5C70.8,9.5,70.8,9.5,70.8,9.5z
			 M67.8,7.5C67.8,7.5,67.9,7.6,67.8,7.5l2.7,1.4L70,6c0-0.1,0-0.1,0.1-0.2l2.1-2l-2.9-0.4c-0.1,0-0.1-0.1-0.2-0.1l-1.3-2.6
			l-1.3,2.6c0,0.1-0.1,0.1-0.2,0.1l-2.9,0.4l2.1,2c0,0,0.1,0.1,0.1,0.2l-0.5,2.9L67.8,7.5C67.7,7.6,67.8,7.5,67.8,7.5z"/>
	</g>
	<g id="XMLID_49_">
		<path id="XMLID_50_" class="st0" d="M83.4,9.5C83.3,9.5,83.3,9.5,83.4,9.5l-3-1.5l-2.9,1.5c-0.1,0-0.1,0-0.2,0s-0.1-0.1-0.1-0.2
			l0.5-3.2l-2.3-2.3c-0.1-0.1-0.1-0.1-0.1-0.2c0-0.1,0.1-0.1,0.2-0.1L78.7,3l1.4-2.9c0.1-0.1,0.3-0.1,0.4,0L81.9,3l3.2,0.5
			c0.1,0,0.1,0.1,0.2,0.1c0.1,0,0,0.2-0.1,0.2l-2.3,2.3l0.5,3.2C83.4,9.4,83.4,9.5,83.4,9.5C83.5,9.5,83.4,9.5,83.4,9.5z M80.4,7.5
			C80.4,7.5,80.5,7.6,80.4,7.5l2.7,1.4L82.6,6c0-0.1,0-0.1,0.1-0.2l2.1-2l-2.9-0.4c-0.1,0-0.1-0.1-0.2-0.1l-1.3-2.6l-1.3,2.6
			c0,0.1-0.1,0.1-0.2,0.1L76,3.8l2.1,2c0,0,0.1,0.1,0.1,0.2l-0.5,2.9L80.4,7.5C80.3,7.6,80.4,7.5,80.4,7.5z"/>
	</g>
	<g id="XMLID_45_">
		<path id="XMLID_46_" class="st0" d="M96,9.5C95.9,9.5,95.9,9.5,96,9.5L93,8l-2.9,1.5c-0.1,0-0.1,0-0.2,0c-0.1,0-0.1-0.1-0.1-0.2
			l0.5-3.2L88,3.8c-0.1-0.1-0.1-0.1-0.1-0.2c0-0.1,0.1-0.1,0.2-0.1L91.3,3l1.4-2.9C92.8,0,93,0,93.1,0.1L94.5,3l3.2,0.5
			c0.1,0,0.1,0.1,0.2,0.1s0,0.2-0.1,0.2l-2.3,2.3L96,9.3C96,9.4,96,9.5,96,9.5C96.1,9.5,96,9.5,96,9.5z M93,7.5
			C93,7.5,93.1,7.6,93,7.5l2.7,1.4L95.2,6c0-0.1,0-0.1,0.1-0.2l2.1-2l-2.9-0.4c-0.1,0-0.1-0.1-0.2-0.1L93,0.7l-1.3,2.6
			c0,0.1-0.1,0.1-0.2,0.1l-2.9,0.4l2.1,2c0,0,0.1,0.1,0.1,0.2l-0.5,2.9L93,7.5C93,7.6,93,7.5,93,7.5z"/>
	</g>
	<g id="XMLID_41_">
		<path id="XMLID_42_" class="st0" d="M108.6,9.5C108.5,9.5,108.5,9.5,108.6,9.5l-3-1.5l-2.9,1.5c-0.1,0-0.1,0-0.2,0
			s-0.1-0.1-0.1-0.2l0.5-3.2l-2.3-2.3c-0.1-0.1-0.1-0.1-0.1-0.2c0-0.1,0.1-0.1,0.2-0.1l3.2-0.5l1.4-2.9c0.1-0.1,0.3-0.1,0.4,0
			l1.4,2.9l3.2,0.5c0.1,0,0.1,0.1,0.2,0.1s0,0.2-0.1,0.2l-2.3,2.3l0.5,3.2C108.6,9.4,108.6,9.5,108.6,9.5
			C108.7,9.5,108.6,9.5,108.6,9.5z M105.6,7.5C105.7,7.5,105.7,7.6,105.6,7.5l2.7,1.4L107.8,6c0-0.1,0-0.1,0.1-0.2l2.1-2l-2.9-0.4
			c-0.1,0-0.1-0.1-0.2-0.1l-1.3-2.6l-1.3,2.6c0,0.1-0.1,0.1-0.2,0.1l-2.9,0.4l2.1,2c0,0,0.1,0.1,0.1,0.2l-0.5,2.9L105.6,7.5
			C105.6,7.6,105.6,7.5,105.6,7.5z"/>
	</g>
	<g id="XMLID_37_">
		<path id="XMLID_38_" class="st0" d="M121.2,9.5C121.2,9.5,121.1,9.5,121.2,9.5l-3-1.5l-2.9,1.5c-0.1,0-0.1,0-0.2,0
			S115,9.4,115,9.3l0.5-3.2l-2.3-2.3c-0.1-0.1-0.1-0.1-0.1-0.2c0-0.1,0.1-0.1,0.2-0.1l3.2-0.5l1.4-2.9c0.1-0.1,0.3-0.1,0.4,0
			l1.4,2.9l3.2,0.5c0.1,0,0.1,0.1,0.2,0.1s0,0.2-0.1,0.2l-2.3,2.3l0.5,3.2C121.2,9.4,121.2,9.5,121.2,9.5
			C121.3,9.5,121.2,9.5,121.2,9.5z M118.2,7.5C118.3,7.5,118.3,7.6,118.2,7.5l2.7,1.4L120.4,6c0-0.1,0-0.1,0.1-0.2l2.1-2l-2.9-0.4
			c-0.1,0-0.1-0.1-0.2-0.1l-1.3-2.6l-1.3,2.6c0,0.1-0.1,0.1-0.2,0.1l-2.9,0.4l2.1,2c0,0,0.1,0.1,0.1,0.2l-0.5,2.9L118.2,7.5
			C118.2,7.6,118.2,7.5,118.2,7.5z"/>
	</g>
	<g id="XMLID_35_">
		<polygon id="XMLID_36_" class="st0" points="17.4,0.2 18.9,3.2 22.2,3.7 19.8,6 20.3,9.3 17.4,7.7 14.4,9.3 15,6 12.6,3.7 
			15.9,3.2 		"/>
	</g>
	<g id="XMLID_33_">
		<polygon id="XMLID_34_" class="st0" points="4.8,0.2 6.3,3.2 9.6,3.7 7.2,6 7.7,9.3 4.8,7.7 1.8,9.3 2.4,6 0,3.7 3.3,3.2 		"/>
	</g>
	<g id="XMLID_31_">
		<polygon id="XMLID_32_" class="st0" points="30,16.2 31.5,19.2 34.8,19.7 32.4,22 32.9,25.3 30,23.7 27,25.3 27.6,22 25.2,19.7 
			28.5,19.2 		"/>
	</g>
	<g id="XMLID_29_">
		<polygon id="XMLID_30_" class="st0" points="42.6,16.2 44.1,19.2 47.4,19.7 45,22 45.5,25.3 42.6,23.7 39.6,25.3 40.2,22 
			37.8,19.7 41.1,19.2 		"/>
	</g>
	<g id="XMLID_27_">
		<polygon id="XMLID_28_" class="st0" points="55.2,16.2 55.2,23.7 52.2,25.3 52.8,22 50.4,19.7 53.7,19.2 		"/>
	</g>
	<g id="XMLID_23_">
		<path id="XMLID_24_" class="st0" d="M70.8,25.5C70.7,25.5,70.7,25.5,70.8,25.5l-3-1.5l-2.9,1.5c-0.1,0-0.1,0-0.2,0
			c-0.1,0-0.1-0.1-0.1-0.2l0.5-3.2l-2.3-2.3c-0.1-0.1-0.1-0.1-0.1-0.2c0-0.1,0.1-0.1,0.2-0.1l3.2-0.5l1.4-2.9c0.1-0.1,0.3-0.1,0.4,0
			l1.4,2.9l3.2,0.5c0.1,0,0.1,0.1,0.2,0.1s0,0.2-0.1,0.2l-2.3,2.3l0.5,3.2C70.8,25.4,70.8,25.5,70.8,25.5
			C70.8,25.5,70.8,25.5,70.8,25.5z M67.8,23.5C67.8,23.5,67.9,23.6,67.8,23.5l2.7,1.4L70,22c0-0.1,0-0.1,0.1-0.2l2.1-2l-2.9-0.4
			c-0.1,0-0.1-0.1-0.2-0.1l-1.3-2.6l-1.3,2.6c0,0.1-0.1,0.1-0.2,0.1l-2.9,0.4l2.1,2c0,0,0.1,0.1,0.1,0.2l-0.5,2.9L67.8,23.5
			C67.7,23.6,67.8,23.5,67.8,23.5z"/>
	</g>
	<g id="XMLID_19_">
		<path id="XMLID_20_" class="st0" d="M58.2,25.5C58.1,25.5,58.1,25.5,58.2,25.5l-3-1.5l-2.9,1.5c-0.1,0-0.1,0-0.2,0
			c-0.1,0-0.1-0.1-0.1-0.2l0.5-3.2l-2.3-2.3c-0.1-0.1-0.1-0.1-0.1-0.2c0-0.1,0.1-0.1,0.2-0.1l3.2-0.5l1.4-2.9c0.1-0.1,0.3-0.1,0.4,0
			l1.4,2.9l3.2,0.5c0.1,0,0.1,0.1,0.2,0.1c0.1,0,0,0.2-0.1,0.2l-2.3,2.3l0.5,3.2C58.2,25.4,58.2,25.5,58.2,25.5
			C58.2,25.5,58.2,25.5,58.2,25.5z M55.2,23.5C55.2,23.5,55.3,23.6,55.2,23.5l2.7,1.4L57.4,22c0-0.1,0-0.1,0.1-0.2l2.1-2l-2.9-0.4
			c-0.1,0-0.1-0.1-0.2-0.1l-1.3-2.6l-1.3,2.6c0,0.1-0.1,0.1-0.2,0.1l-2.9,0.4l2.1,2c0,0,0.1,0.1,0.1,0.2l-0.5,2.9L55.2,23.5
			C55.1,23.6,55.2,23.5,55.2,23.5z"/>
	</g>
	<g id="XMLID_15_">
		<path id="XMLID_16_" class="st0" d="M83.4,25.5C83.3,25.5,83.3,25.5,83.4,25.5l-3-1.5l-2.9,1.5c-0.1,0-0.1,0-0.2,0
			s-0.1-0.1-0.1-0.2l0.5-3.2l-2.3-2.3c-0.1-0.1-0.1-0.1-0.1-0.2c0-0.1,0.1-0.1,0.2-0.1l3.2-0.5l1.4-2.9c0.1-0.1,0.3-0.1,0.4,0
			l1.4,2.9l3.2,0.5c0.1,0,0.1,0.1,0.2,0.1c0.1,0,0,0.2-0.1,0.2l-2.3,2.3l0.5,3.2C83.4,25.4,83.4,25.5,83.4,25.5
			C83.5,25.5,83.4,25.5,83.4,25.5z M80.4,23.5C80.4,23.5,80.5,23.6,80.4,23.5l2.7,1.4L82.6,22c0-0.1,0-0.1,0.1-0.2l2.1-2l-2.9-0.4
			c-0.1,0-0.1-0.1-0.2-0.1l-1.3-2.6l-1.3,2.6c0,0.1-0.1,0.1-0.2,0.1L76,19.8l2.1,2c0,0,0.1,0.1,0.1,0.2l-0.5,2.9L80.4,23.5
			C80.3,23.6,80.4,23.5,80.4,23.5z"/>
	</g>
	<g id="XMLID_11_">
		<path id="XMLID_12_" class="st0" d="M96,25.5C95.9,25.5,95.9,25.5,96,25.5L93,24l-2.9,1.5c-0.1,0-0.1,0-0.2,0
			c-0.1,0-0.1-0.1-0.1-0.2l0.5-3.2L88,19.8c-0.1-0.1-0.1-0.1-0.1-0.2c0-0.1,0.1-0.1,0.2-0.1l3.2-0.5l1.4-2.9c0.1-0.1,0.3-0.1,0.4,0
			l1.4,2.9l3.2,0.5c0.1,0,0.1,0.1,0.2,0.1s0,0.2-0.1,0.2l-2.3,2.3l0.5,3.2C96,25.4,96,25.5,96,25.5C96.1,25.5,96,25.5,96,25.5z
			 M93,23.5C93,23.5,93.1,23.6,93,23.5l2.7,1.4L95.2,22c0-0.1,0-0.1,0.1-0.2l2.1-2l-2.9-0.4c-0.1,0-0.1-0.1-0.2-0.1L93,16.7
			l-1.3,2.6c0,0.1-0.1,0.1-0.2,0.1l-2.9,0.4l2.1,2c0,0,0.1,0.1,0.1,0.2l-0.5,2.9L93,23.5C93,23.6,93,23.5,93,23.5z"/>
	</g>
	<g id="XMLID_7_">
		<path id="XMLID_8_" class="st0" d="M108.6,25.5C108.5,25.5,108.5,25.5,108.6,25.5l-3-1.5l-2.9,1.5c-0.1,0-0.1,0-0.2,0
			s-0.1-0.1-0.1-0.2l0.5-3.2l-2.3-2.3c-0.1-0.1-0.1-0.1-0.1-0.2c0-0.1,0.1-0.1,0.2-0.1l3.2-0.5l1.4-2.9c0.1-0.1,0.3-0.1,0.4,0
			l1.4,2.9l3.2,0.5c0.1,0,0.1,0.1,0.2,0.1s0,0.2-0.1,0.2l-2.3,2.3l0.5,3.2C108.6,25.4,108.6,25.5,108.6,25.5
			C108.7,25.5,108.6,25.5,108.6,25.5z M105.6,23.5C105.7,23.5,105.7,23.6,105.6,23.5l2.7,1.4l-0.5-2.9c0-0.1,0-0.1,0.1-0.2l2.1-2
			l-2.9-0.4c-0.1,0-0.1-0.1-0.2-0.1l-1.3-2.6l-1.3,2.6c0,0.1-0.1,0.1-0.2,0.1l-2.9,0.4l2.1,2c0,0,0.1,0.1,0.1,0.2l-0.5,2.9
			L105.6,23.5C105.6,23.6,105.6,23.5,105.6,23.5z"/>
	</g>
	<g id="XMLID_5_">
		<polygon id="XMLID_6_" class="st0" points="17.4,16.2 18.9,19.2 22.2,19.7 19.8,22 20.3,25.3 17.4,23.7 14.4,25.3 15,22 
			12.6,19.7 15.9,19.2 		"/>
	</g>
	<g id="XMLID_3_">
		<polygon id="XMLID_4_" class="st0" points="4.8,16.2 6.3,19.2 9.6,19.7 7.2,22 7.7,25.3 4.8,23.7 1.8,25.3 2.4,22 0,19.7 
			3.3,19.2 		"/>
	</g>
</g>
</svg>
