<?xml version="1.0" encoding="utf-8"?>
<!-- Generator: Adobe Illustrator 19.0.0, SVG Export Plug-In . SVG Version: 6.00 Build 0)  -->
<svg version="1.1" id="Слой_1" xmlns="http://www.w3.org/2000/svg" xmlns:xlink="http://www.w3.org/1999/xlink" x="0px" y="0px"
	 viewBox="-235 408.1 123.1 26" style="enable-background:new -235 408.1 123.1 26;" xml:space="preserve">
<style type="text/css">
	.st0{fill:#82C394;}
</style>
<g id="XMLID_61_">
	<g id="XMLID_62_">
		<polygon class="st0" points="-205,408.6 -203.5,411.6 -200.2,412.1 -202.6,414.4 -202.1,417.7 -205,416.1 -208,417.7 
			-207.4,414.4 -209.8,412.1 -206.5,411.6 		"/>
	</g>
</g>
<g id="XMLID_59_">
	<g id="XMLID_60_">
		<polygon class="st0" points="-192.4,408.6 -190.9,411.6 -187.6,412.1 -190,414.4 -189.5,417.7 -192.4,416.1 -195.4,417.7 
			-194.8,414.4 -197.2,412.1 -193.9,411.6 		"/>
	</g>
</g>
<g id="XMLID_9_">
	<g id="XMLID_10_">
		<path class="st0" d="M-170.5,418.1l0.7-3.6l-2.6-2.5l3.6-0.5l1.6-3.3l1.6,3.3l3.6,0.5l-2.6,2.5l0.5,3.6l-3.2-1.7L-170.5,418.1z
			 M-167.2,415.9l2.6,1.5l-0.5-3l2.2-2.1l-3-0.5l-1.4-2.7l-1.4,2.7l-3,0.5l2.2,2.1l-0.5,3L-167.2,415.9z"/>
	</g>
</g>
<g id="XMLID_13_">
	<g id="XMLID_14_">
		<path class="st0" d="M-151.4,418.1l-3.2-1.7l-3.3,1.7l0.7-3.6l-2.6-2.5l3.6-0.5l1.6-3.3l1.6,3.3l3.6,0.5l-2.6,2.5L-151.4,418.1z
			 M-159,412.2l2.2,2.1l-0.5,3l2.7-1.5l2.6,1.5l-0.5-3l2.2-2.1l-3-0.5l-1.4-2.7l-1.4,2.7L-159,412.2z"/>
	</g>
</g>
<g id="XMLID_17_">
	<g id="XMLID_18_">
		<path class="st0" d="M-145.3,418.1l0.7-3.6l-2.6-2.5l3.6-0.5l1.6-3.3l1.6,3.3l3.6,0.5l-2.6,2.5l0.5,3.6l-3.2-1.7L-145.3,418.1z
			 M-142,415.9l2.6,1.5l-0.5-3l2.2-2.1l-3-0.5l-1.4-2.7l-1.4,2.7l-3,0.5l2.2,2.1l-0.5,3L-142,415.9z"/>
	</g>
</g>
<g id="XMLID_21_">
	<g id="XMLID_22_">
		<path class="st0" d="M-132.7,418.1l0.7-3.6l-2.6-2.5l3.6-0.5l1.6-3.3l1.6,3.3l3.6,0.5l-2.6,2.5l0.5,3.6l-3.2-1.7L-132.7,418.1z
			 M-129.4,415.9l2.6,1.5l-0.5-3l2.2-2.1l-3-0.5l-1.4-2.7l-1.4,2.7l-3,0.5l2.2,2.1l-0.5,3L-129.4,415.9z"/>
	</g>
</g>
<g id="XMLID_25_">
	<g id="XMLID_26_">
		<path class="st0" d="M-113.6,418.1l-3.2-1.7l-3.3,1.7l0.7-3.6l-2.6-2.5l3.6-0.5l1.6-3.3l1.6,3.3l3.6,0.5l-2.6,2.5L-113.6,418.1z
			 M-121.2,412.2l2.2,2.1l-0.5,3l2.7-1.5l2.6,1.5l-0.5-3l2.2-2.1l-3-0.5l-1.4-2.7l-1.4,2.7L-121.2,412.2z"/>
	</g>
</g>
<g id="XMLID_19_">
	<g id="XMLID_20_">
		<path class="st0" d="M-170.5,434.1l0.7-3.6l-2.6-2.5l3.6-0.5l1.6-3.3l1.6,3.3l3.6,0.5l-2.6,2.5l0.5,3.6l-3.2-1.7L-170.5,434.1z
			 M-167.2,431.9l2.6,1.5l-0.5-3l2.2-2.1l-3-0.5l-1.4-2.7l-1.4,2.7l-0.1,0l-2.9,0.4l2.2,2.1l-0.5,3L-167.2,431.9z"/>
	</g>
</g>
<g id="XMLID_23_">
	<g id="XMLID_24_">
		<path class="st0" d="M-176.6,434.1l-3.2-1.7l-3.3,1.7l0.7-3.6l-2.6-2.5l3.6-0.5l1.6-3.3l1.6,3.3l3.6,0.5l-2.6,2.5L-176.6,434.1z
			 M-184.2,428.2l2.2,2.1l-0.5,3l2.7-1.5l2.6,1.5l-0.5-3l2.2-2.1l-3-0.5l-1.4-2.7l-1.4,2.7l-0.1,0L-184.2,428.2z"/>
	</g>
</g>
<g id="XMLID_15_">
	<g id="XMLID_16_">
		<path class="st0" d="M-151.4,434.1l-3.2-1.7l-3.3,1.7l0.7-3.6l-2.6-2.5l3.6-0.5l1.6-3.3l1.6,3.3l3.6,0.5l-2.6,2.5L-151.4,434.1z
			 M-159,428.2l2.2,2.1l-0.5,3l2.7-1.5l2.6,1.5l-0.5-3l2.2-2.1l-3-0.5l-1.4-2.7l-1.4,2.7L-159,428.2z"/>
	</g>
</g>
<g id="XMLID_11_">
	<g id="XMLID_12_">
		<path class="st0" d="M-145.3,434.1l0.7-3.6l-2.6-2.5l3.6-0.5l1.6-3.3l1.6,3.3l3.6,0.5l-2.6,2.5l0.5,3.6l-3.2-1.7L-145.3,434.1z
			 M-142,431.9l2.6,1.5l-0.5-3l2.2-2.1l-3-0.5l-1.4-2.7l-1.4,2.7l-0.1,0l-2.9,0.4l2.2,2.1l-0.5,3L-142,431.9z"/>
	</g>
</g>
<g id="XMLID_7_">
	<g id="XMLID_8_">
		<path class="st0" d="M-132.7,434.1l0.7-3.6l-2.6-2.5l3.6-0.5l1.6-3.3l1.6,3.3l3.6,0.5l-2.6,2.5l0.5,3.6l-3.2-1.7L-132.7,434.1z
			 M-129.4,431.9l2.6,1.5l-0.5-3l2.2-2.1l-3-0.5l-1.4-2.7l-1.4,2.7l-0.1,0l-2.9,0.4l2.2,2.1l-0.5,3L-129.4,431.9z"/>
	</g>
</g>
<g id="XMLID_1_">
	<g id="XMLID_2_">
		<path class="st0" d="M-113.6,434.1l-3.2-1.7l-3.3,1.7l0.7-3.6l-2.6-2.5l3.6-0.5l1.6-3.3l1.6,3.3l3.6,0.5l-2.6,2.5L-113.6,434.1z
			 M-121.2,428.2l2.2,2.1l-0.5,3l2.7-1.5l2.6,1.5l-0.5-3l2.2-2.1l-3-0.5l-1.4-2.7l-1.4,2.7l-0.1,0L-121.2,428.2z"/>
	</g>
</g>
<g id="XMLID_57_">
	<g id="XMLID_58_">
		<polygon class="st0" points="-179.8,408.6 -178.3,411.6 -175,412.1 -177.4,414.4 -176.8,417.7 -179.8,416.1 -182.8,417.7 
			-182.2,414.4 -184.6,412.1 -181.3,411.6 		"/>
	</g>
</g>
<g id="XMLID_35_">
	<g id="XMLID_36_">
		<polygon class="st0" points="-217.6,408.6 -216.1,411.6 -212.8,412.1 -215.2,414.4 -214.7,417.7 -217.6,416.1 -220.6,417.7 
			-220,414.4 -222.4,412.1 -219.1,411.6 		"/>
	</g>
</g>
<g id="XMLID_33_">
	<g id="XMLID_34_">
		<polygon class="st0" points="-230.2,408.6 -228.7,411.6 -225.4,412.1 -227.8,414.4 -227.3,417.7 -230.2,416.1 -233.2,417.7 
			-232.6,414.4 -235,412.1 -231.7,411.6 		"/>
	</g>
</g>
<g id="XMLID_31_">
	<g id="XMLID_32_">
		<polygon class="st0" points="-205,424.6 -203.5,427.6 -200.2,428.1 -202.6,430.4 -202.1,433.7 -205,432.1 -208,433.7 
			-207.4,430.4 -209.8,428.1 -206.5,427.6 		"/>
	</g>
</g>
<g id="XMLID_29_">
	<g id="XMLID_30_">
		<polygon class="st0" points="-192.4,424.6 -190.9,427.6 -187.6,428.1 -190,430.4 -189.5,433.7 -192.4,432.1 -195.4,433.7 
			-194.8,430.4 -197.2,428.1 -193.9,427.6 		"/>
	</g>
</g>
<g id="XMLID_27_">
	<g id="XMLID_28_">
		<polygon class="st0" points="-179.8,424.6 -179.8,432.1 -182.8,433.7 -182.2,430.4 -184.6,428.1 -181.3,427.6 		"/>
	</g>
</g>
<g id="XMLID_5_">
	<g id="XMLID_6_">
		<polygon class="st0" points="-217.6,424.6 -216.1,427.6 -212.8,428.1 -215.2,430.4 -214.7,433.7 -217.6,432.1 -220.6,433.7 
			-220,430.4 -222.4,428.1 -219.1,427.6 		"/>
	</g>
</g>
<g id="XMLID_3_">
	<g id="XMLID_4_">
		<polygon class="st0" points="-230.2,424.6 -228.7,427.6 -225.4,428.1 -227.8,430.4 -227.3,433.7 -230.2,432.1 -233.2,433.7 
			-232.6,430.4 -235,428.1 -231.7,427.6 		"/>
	</g>
</g>
</svg>
