<?xml version="1.0" encoding="iso-8859-1"?>
<!-- Generator: Adobe Illustrator 19.0.0, SVG Export Plug-In . SVG Version: 6.00 Build 0)  -->
<svg xmlns="http://www.w3.org/2000/svg" xmlns:xlink="http://www.w3.org/1999/xlink" version="1.1" id="Capa_1" x="0px" y="0px" viewBox="0 0 508.012 508.012" style="enable-background:new 0 0 508.012 508.012;" xml:space="preserve" width="512px" height="512px">
<g>
	<g>
		<path d="M497.422,146.512l-30.8-7.9l11.8-21.7c2.1-3.8,3.6-17.2-8.9-20.4l-367.3-94.1c-37.9-10.6-62.2,15.7-68.7,40.6l-21.4,83.3    c-7.7,30.1,10.5,60.9,40.6,68.6l103.6,26.5c-0.3,11.7,2.6,23.2,8.7,33.5c5.8,9.7,13.9,17.5,23.5,22.8l-50.8,121.7h-109.5v-66.3    c0-7.8-6.3-14.1-14.1-14.1c-7.8,0-14.1,6.3-14.1,14.1v160.8c0,7.8,6.3,14.1,14.1,14.1c7.8,0,14.1-6.3,14.1-14.1v-66.3h118.9    c5.7,0,10.8-3.4,13-8.7l55.7-133.4c4.6,1.2,25.4-2.8,35.2-8.6c10.3-6.1,18.4-14.8,23.8-25.2l103.6,26.5c9.4,1.9,13.4-2.3,15.9-6.9    l15.2-27.9c0,0,61.4,15.6,62.5,15.6c6.3,0,12-4.2,13.7-10.6l21.8-84.8C509.522,156.112,504.922,148.412,497.422,146.512z     M210.622,256.512c-13.7-3.2-23.2-14.6-25.4-27.6l61.1,15.6C235.422,257.812,223.322,259.512,210.622,256.512z M374.922,248.312    l-315-80.7c-15.1-3.9-24.2-19.2-20.3-34.3l21.3-83.3c7.4-28.4,32-20.9,34.4-20.3l349.7,89.6L374.922,248.312z M461.922,227.812    l-38.5-9.8l29.2-53.8l24,6.2L461.922,227.812z" fill="#161616"/>
	</g>
</g>
<g>
</g>
<g>
</g>
<g>
</g>
<g>
</g>
<g>
</g>
<g>
</g>
<g>
</g>
<g>
</g>
<g>
</g>
<g>
</g>
<g>
</g>
<g>
</g>
<g>
</g>
<g>
</g>
<g>
</g>
</svg>
